<svg width="1140" height="500" class="area">
<style type="text/css">
	<![CDATA[
	.axis path,
			.axis line {
			  fill: none;
			  stroke: #000;
			  shape-rendering: crispEdges;
			}
			svg .area {
				fill:#3498DB;
			}
	]]>
</style>
<g transform="translate(40,20)"><line x1="38.428267432077995" x2="38.428267432077995" y1="0" y2="450" style="stroke: #cccccc;"></line><line x1="155.1561340129658" x2="155.1561340129658" y1="0" y2="450" style="stroke: #cccccc;"></line><line x1="273.1667244024348" x2="273.1667244024348" y1="0" y2="450" style="stroke: #cccccc;"></line><line x1="391.23076161726135" x2="391.23076161726135" y1="0" y2="450" style="stroke: #cccccc;"></line><line x1="506.6224575642104" x2="506.6224575642104" y1="0" y2="450" style="stroke: #cccccc;"></line><line x1="623.3503241450982" x2="623.3503241450982" y1="0" y2="450" style="stroke: #cccccc;"></line><line x1="741.3609145345672" x2="741.3609145345672" y1="0" y2="450" style="stroke: #cccccc;"></line><line x1="859.4249517493938" x2="859.4249517493938" y1="0" y2="450" style="stroke: #cccccc;"></line><line x1="974.8166476963428" x2="974.8166476963428" y1="0" y2="450" style="stroke: #cccccc;"></line><line x1="0" x2="1080" y1="450" y2="450" style="stroke: #cccccc;"></line><line x1="0" x2="1080" y1="337.5" y2="337.5" style="stroke: #cccccc;"></line><line x1="0" x2="1080" y1="225" y2="225" style="stroke: #cccccc;"></line><line x1="0" x2="1080" y1="112.5" y2="112.5" style="stroke: #cccccc;"></line><line x1="0" x2="1080" y1="0" y2="0" style="stroke: #cccccc;"></line><path class="area" d="M1080,225C1080,225,1080,225,1066.9589746127579,213.75C1053.917949225516,202.5,1027.8358984510319,180,1002.1903300836343,153.75C976.5447617162368,127.49999999999997,951.3356757559261,97.49999999999996,925.4763200870984,71.24999999999996C899.6169644182708,44.99999999999996,873.1073390409263,22.49999999999998,846.8025931607857,18.74999999999999C820.4978472806451,15,794.3979808977086,30,768.3070223189983,50.624999999999986C742.216063740288,71.24999999999997,716.1340129658039,97.49999999999996,690.0519621913198,121.87499999999994C663.9699114168357,146.24999999999994,637.8878606423516,168.74999999999994,611.8058098678675,191.24999999999994C585.7237590933835,213.74999999999994,559.6417083188993,236.24999999999997,533.9961399515018,237.7875C508.35057158410444,239.325,483.1414856237937,219.89999999999998,470.32315534220817,210.52499999999998C457.5048250606226,201.14999999999998,457.07725045776215,201.82499999999996,456.6496758549018,202.36874999999998C456.22210125204134,202.91249999999997,455.79452664918097,203.325,455.36695204632053,203.54999999999998C454.9393774434601,203.77499999999998,454.5118028405997,203.81249999999997,453.44286633344876,203.68124999999998C452.37392982629774,203.54999999999995,450.66363141485624,203.24999999999997,449.5946949077052,204.075C448.52575840055425,204.89999999999998,448.0981837976939,206.84999999999997,447.67060919483345,207.16875C447.24303459197307,207.48749999999998,446.8154599891127,206.17499999999998,446.38788538625226,205.7625C445.9603107833919,205.35,445.53273618053146,205.8375,445.1051615776711,206.13750000000002C444.67758697481065,206.4375,444.2500123719503,206.55,443.3948631662295,206.19375000000002C442.5397139605087,205.8375,441.25699015192754,205.0125,440.40184094620673,205.5375C439.5466917404859,206.0625,439.11911713762555,207.93749999999997,438.6915425347652,206.94374999999997C438.26396793190474,205.94999999999996,437.8363933290443,202.08749999999998,437.40881872618394,202.40624999999997C436.98124412332356,202.72499999999997,436.55366952046313,207.225,436.1260949176027,211.05C435.6985203147423,214.875,435.27094571188195,218.02499999999998,434.41579650616114,219.35625C433.56064730044034,220.68749999999997,432.2779234918592,220.19999999999996,431.4227742861384,218.5125C430.56762508041766,216.82499999999996,430.1400504775572,213.93749999999997,429.71247587469685,213.95624999999995C429.2849012718365,213.97499999999997,428.8573266689761,216.89999999999995,428.4297520661157,217.64999999999998C428.0021774632553,218.39999999999995,427.57460286039486,216.97499999999997,427.14702825753443,215.90624999999997C426.71945365467406,214.83749999999998,426.2918790518137,214.12499999999997,425.43672984609293,213.50624999999997C424.5815806403721,212.88749999999996,423.29885683179094,212.36249999999995,422.44370762607014,212.73749999999995C421.5885584203494,213.11249999999995,421.16098381748895,214.3875,420.7334092146285,215.94375000000002C420.30583461176815,217.5,419.8782600089078,219.33749999999998,419.45068540604734,221.08124999999998C419.02311080318697,222.825,418.5955362003266,224.475,417.5265996931756,224.55C416.45766318602466,224.625,414.74736477458305,223.12499999999997,413.6784282674321,222.43124999999998C412.60949176028106,221.73749999999995,412.1819171574207,221.84999999999997,411.75434255456025,221.73749999999995C411.3267679516999,221.62499999999994,410.8991933488395,221.28749999999997,410.47161874597913,220.64999999999998C410.04404414311875,220.0125,409.6164695402583,219.075,409.18889493739795,216.05625C408.7613203345375,213.03750000000002,408.33374573167714,207.9375,407.47859652595633,205.10625C406.6234473202355,202.27499999999998,405.34072351165435,201.71249999999998,404.48557430593354,201.29999999999995C403.63042510021273,200.88749999999993,403.20285049735236,200.62499999999994,402.775275894492,203.17499999999995C402.34770129163155,205.72499999999997,401.9201266887711,211.08749999999998,401.49255208591075,213.63749999999996C401.06497748305037,216.1875,400.63740288019,215.925,400.20982827732956,215.325C399.7822536744692,214.725,399.3546790716088,213.78749999999997,398.499529865888,212.49374999999998C397.64438066016726,211.19999999999996,396.3616568515861,209.54999999999995,395.5065076458652,211.29374999999996C394.65135844014446,213.03749999999997,394.22378383728403,218.17499999999998,393.79620923442366,221.58749999999998C393.3686346315633,225,392.9410600287029,226.6875,392.2996981244123,229.125C391.6583362201217,231.5625,390.8031870144009,234.74999999999997,389.73425050724995,236.30624999999998C388.66531400009893,237.86249999999995,387.38259019151775,237.78749999999997,386.527440985797,237.82499999999996C385.6722917800762,237.86249999999995,385.24471717721576,238.01249999999996,384.8171425743554,238.46249999999995C384.389567971495,238.91249999999997,383.9619933686346,239.66249999999997,383.32063146434405,240.39374999999995C382.67926956005346,241.12499999999994,381.82412035433265,241.83749999999995,380.7551838471817,241.14374999999995C379.6862473400307,240.44999999999993,378.4035235314495,238.34999999999997,377.5483743257287,237.46874999999994C376.69322512000787,236.58749999999998,376.2656505171475,236.92499999999995,375.83807591428706,237.95624999999998C375.41050131142674,238.98749999999998,374.9829267085663,240.71249999999998,374.55535210570594,242.30624999999998C374.12777750284556,243.89999999999998,373.70020289998513,245.36249999999998,373.2726282971247,244.46249999999998C372.8450536942643,243.56249999999997,372.41747909140395,240.29999999999995,371.56232988568314,237.67499999999995C370.70718067996233,235.04999999999995,369.42445687138115,233.06249999999997,368.5693076656604,231.69374999999997C367.7141584599396,230.325,367.2865838570792,229.575,366.85900925421885,229.27499999999998C366.4314346513585,228.97499999999997,366.00386004849804,229.12499999999994,365.5762854456376,229.79999999999995C365.14871084277723,230.47499999999997,364.72113623991686,231.67499999999995,364.2935616370564,233.17499999999995C363.8659870341961,234.67499999999995,363.4384124313357,236.47499999999997,362.58326322561487,236.94374999999997C361.72811401989406,237.41249999999997,360.4453902113129,236.54999999999995,359.59024100559213,237.91875C358.73509179987127,239.28749999999997,358.3075171970109,242.8875,357.8799425941505,243.28125C357.4523679912901,243.67499999999998,357.0247933884297,240.86249999999998,356.59721878556934,239.0625C356.1696441827089,237.2625,355.74206957984853,236.47499999999997,355.31449497698816,235.66874999999996C354.8869203741277,234.86249999999995,354.45934577126735,234.03749999999997,353.6041965655466,234.29999999999998C352.7490473598258,234.5625,351.4663235512446,235.91249999999997,350.6111743455238,235.575C349.756025139803,235.23749999999998,349.3284505369426,233.21249999999998,348.90087593408225,230.79375C348.4733013312218,228.375,348.04572672836144,225.5625,347.61815212550107,224.08125C347.19057752264064,222.6,346.76300291978026,222.45,346.3354283169199,224.71875C345.90785371405946,226.98749999999998,345.4802791111991,231.67499999999998,344.62512990547833,234.0375C343.7699806997575,236.39999999999998,342.4872568911763,236.43749999999997,341.41832038402526,236.96249999999998C340.3493838768743,237.48749999999995,339.49423467115355,238.49999999999997,338.85287276686296,238.81874999999997C338.21151086257237,239.1375,337.78393625971194,238.7625,337.35636165685156,238.59374999999997C336.92878705399113,238.42499999999998,336.50121245113075,238.46249999999998,335.64606324540995,241.25624999999997C334.7909140396892,244.04999999999998,333.508190231108,249.59999999999997,332.6530410253872,252.58124999999995C331.79789181966646,255.56249999999994,331.37031721680603,255.97499999999997,330.94274261394565,257.00624999999997C330.5151680110853,258.03749999999997,330.08759340822485,259.68749999999994,329.6600188053645,259.68749999999994C329.23244420250404,259.68749999999994,328.80486959964367,258.03749999999997,328.37729499678323,257.47499999999997C327.9497203939229,256.91249999999997,327.5221457910625,257.43749999999994,326.6669965853417,256.48124999999993C325.8118473796209,255.52499999999998,324.5291235710397,253.08749999999998,323.6739743653189,251.77499999999998C322.8188251595981,250.46249999999998,322.3912505567377,250.27499999999998,321.9636759538773,248.99999999999997C321.5361013510169,247.72499999999997,321.1085267481565,245.36249999999998,320.68095214529615,244.46249999999998C320.2533775424357,243.5625,319.82580293957534,244.12499999999997,319.39822833671496,242.79374999999996C318.97065373385453,241.46249999999998,318.5430791309942,238.23749999999995,317.6790221210471,233.99999999999997C316.8149651111001,229.7625,315.5144256940664,224.5125,314.65036868411937,215.28749999999997C313.78631167417234,206.06249999999997,313.3587370713119,192.86249999999995,312.93116246845153,186.13124999999997C312.50358786559116,179.39999999999998,312.0760132627307,179.1375,310.7932894541495,180.75C309.51056564556836,182.36249999999998,307.3726926312663,185.84999999999997,306.0899688226852,185.98124999999996C304.80724501410396,186.11249999999995,304.3796704112436,182.88749999999996,303.9520958083832,178.0125C303.52452120552283,173.13749999999996,303.09694660266246,166.61249999999995,302.669371999802,166.66875C302.2417973969417,166.72499999999997,301.8142227940813,173.36249999999995,301.3866481912209,176.17499999999995C300.95907358836047,178.98749999999995,300.5314989855001,177.97499999999997,299.6763497797793,176.83124999999995C298.8212005740585,175.68749999999997,297.5384767654773,174.41249999999997,296.6833275597565,173.49374999999998C295.8281783540357,172.57499999999996,295.4006037511753,172.01249999999993,294.97302914831494,169.96874999999994C294.5454545454545,167.92499999999993,294.11787994259413,164.39999999999992,293.69030533973375,164.23124999999993C293.2627307368733,164.06249999999994,292.83515613401295,167.24999999999994,292.4075815311526,167.98124999999993C291.98000692829214,168.71249999999995,291.55243232543177,166.98749999999995,290.69728311971096,166.25625C289.8421339139902,165.52499999999998,288.559410105409,165.7875,287.70426089968817,165C286.8491116939674,164.21249999999998,286.421537091107,162.37499999999997,285.99396248824667,161.68124999999998C285.56638788538623,160.98749999999995,285.13881328252586,161.43749999999997,284.7112386796655,158.24999999999997C284.28366407680505,155.06249999999997,283.8560894739447,148.23749999999995,283.4285148710843,143.24999999999997C283.00094026822387,138.26249999999996,282.5733656653635,135.11249999999995,281.7182164596427,133.29375C280.8630672539219,131.47499999999997,279.5803434453407,130.98749999999998,278.7251942396199,129.825C277.87004503389915,128.66249999999997,277.4424704310387,126.82499999999996,277.01489582817834,127.40624999999994C276.58732122531796,127.98749999999994,276.15974662245753,130.98749999999995,275.73217201959716,133.42499999999993C275.3045974167367,135.86249999999995,274.87702281387635,137.73749999999995,274.4494482110159,138.35624999999993C274.0218736081556,138.97499999999997,273.59429900529517,138.33749999999998,272.7391497995744,139.34999999999997C271.8840005938536,140.36249999999998,270.60127678527243,143.02499999999998,269.7461275795516,145.875C268.8909783738309,148.725,268.46340377097044,151.7625,268.03582916811007,154.33125C267.60825456524964,156.89999999999998,267.18067996238926,158.99999999999997,266.75310535952883,160.3875C266.3255307566685,161.77499999999995,265.8979561538081,162.44999999999993,265.4703815509477,162.46874999999997C265.0428069480873,162.48749999999995,264.6152323452269,161.84999999999997,263.7600831395061,159.44999999999996C262.9049339337853,157.04999999999995,261.6222101252041,152.88749999999996,260.76706091948336,151.68749999999997C259.91191171376255,150.48749999999995,259.4843371109022,152.24999999999997,259.05676250804174,154.25624999999997C258.6291879051813,156.2625,258.20161330232094,158.5125,257.77403869946056,161.39999999999998C257.34646409660013,164.28749999999997,256.91888949373975,167.81249999999997,256.4913148908794,167.83124999999998C256.06374028801895,167.84999999999997,255.63616568515857,164.36249999999995,254.7810164794378,161.71874999999994C253.92586727371702,159.07499999999993,252.64314346513584,157.27499999999995,251.78799425941503,160.55624999999998C250.93284505369425,163.83749999999998,250.50527045083385,172.2,250.07769584797344,172.9125C249.65012124511304,173.625,249.22254664225267,166.6875,248.7949720393923,162.46875C248.3673974365319,158.25,247.93982283367149,156.75,247.5122482308111,158.11875C247.0846736279507,159.48749999999998,246.6570990250903,163.72499999999997,245.8019498193695,166.31249999999997C244.94680061364872,168.89999999999998,243.66407680506754,169.83749999999998,242.80892759934673,168.93749999999997C241.95377839362595,168.03749999999997,241.52620379076555,165.29999999999998,241.09862918790515,163.51875C240.67105458504477,161.73749999999998,240.24347998218437,160.91249999999997,239.81590537932397,163.34999999999997C239.3883307764636,165.78749999999997,238.96075617360322,171.48749999999995,237.89181966645222,178.55624999999995C236.82288315930123,185.62499999999994,235.11258474785964,194.06249999999994,234.04364824070865,198.86249999999995C232.97471173355768,203.66249999999997,232.54713713069728,204.825,232.11956252783688,204.13124999999997C231.6919879249765,203.43749999999997,231.26441332211607,200.88749999999996,230.8368387192557,207.31874999999997C230.4092641163953,213.74999999999994,229.9816895135349,229.16249999999994,229.5541149106745,235.27499999999992C229.1265403078141,241.38749999999993,228.6989657049537,238.19999999999996,227.8438164992329,235.91249999999997C226.98866729351212,233.62499999999997,225.70594348493094,232.23749999999995,224.85079427921016,233.96249999999998C223.99564507348936,235.68749999999997,223.56807047062898,240.52499999999998,223.14049586776858,243.54375C222.71292126490818,246.56249999999997,222.2853466620478,247.76249999999996,221.85777205918737,246.24374999999998C221.430197456327,244.72499999999997,221.00262285346662,240.48749999999995,220.57504825060622,236.08124999999998C220.1474736477458,231.67499999999998,219.7198990448854,227.10000000000002,218.86474983916463,222.41250000000002C218.00960063344382,217.72500000000002,216.72687682486264,212.925,215.87172761914186,210.0375C215.0165784134211,207.14999999999998,214.58900381056068,206.17499999999998,214.16142920770028,205.03125C213.7338546048399,203.8875,213.30628000197947,202.575,212.8787053991191,201.58125C212.4511307962587,200.5875,212.0235561933983,199.9125,211.59598159053792,196.61249999999998C211.1684069876775,193.31249999999997,210.7408323848171,187.3875,209.8856831790963,180.71249999999998C209.03053397337553,174.03749999999997,207.74781016479434,166.61249999999995,206.89266095907354,163.12499999999994C206.03751175335276,159.63749999999993,205.60993715049239,160.08749999999995,205.182362547632,158.94374999999997C204.75478794477158,157.79999999999995,204.3272133419112,155.06249999999997,203.89963873905077,154.85625C203.4720641361904,154.64999999999998,203.04448953333002,156.975,202.61691493046962,158.90625C202.18934032760922,160.83749999999998,201.7617657247488,162.37499999999997,200.906616519028,166.95C200.05146731330723,171.52499999999998,198.76874350472605,179.1375,197.91359429900527,185.56875C197.0584450932845,192,196.6308704904241,197.24999999999997,196.20329588756368,205.83749999999998C195.7757212847033,214.42499999999995,195.34814668184293,226.34999999999997,194.92057207898253,230.17499999999995C194.49299747612213,233.99999999999994,194.06542287326172,229.72499999999997,193.63784827040132,226.34999999999997C193.21027366754095,222.97499999999997,192.78269906468054,220.49999999999994,191.92754985895976,221.34374999999994C191.07240065323896,222.18749999999994,189.78967684465778,226.34999999999994,188.93452763893697,228.11249999999993C188.0793784332162,229.87499999999994,187.6518038303558,229.23749999999995,187.2242292274954,225.50624999999997C186.796654624635,221.77499999999998,186.3690800217746,214.95,185.94150541891423,209.64374999999998C185.51393081605383,204.33749999999998,185.08635621319343,200.54999999999995,184.65878161033302,197.19374999999994C184.23120700747262,193.83749999999992,183.80363240461224,190.91249999999994,182.94848319889144,188.02499999999995C182.09333399317066,185.13749999999996,180.81061018458948,182.28749999999997,179.9554609788687,180.95624999999998C179.1003117731479,179.62499999999997,178.6727371702875,179.81249999999994,178.2451625674271,182.34374999999994C177.8175879645667,184.87499999999994,177.39001336170634,189.74999999999997,176.96243875884593,191.5875C176.53486415598553,193.42499999999998,176.10728955312516,192.22499999999997,175.67971495026475,194.60624999999996C175.25214034740435,196.98749999999995,174.82456574454395,202.94999999999996,173.96941653882317,205.53749999999997C173.11426733310236,208.12499999999997,171.83154352452118,207.33749999999998,170.97639431880037,206.00624999999997C170.1212451130796,204.67499999999998,169.6936705102192,202.79999999999998,169.26609590735882,203.325C168.8385213044984,203.84999999999997,168.41094670163804,206.77499999999998,167.98337209877766,205.85624999999996C167.55579749591726,204.9375,167.12822289305686,200.175,166.70064829019645,193.74375C166.27307368733608,187.3125,165.84549908447565,179.2125,164.99034987875487,174.20625C164.13520067303406,169.2,162.85247686445288,167.2875,161.9973276587321,164.71875C161.1421784530113,162.14999999999998,160.7146038501509,158.92499999999998,160.0732419458603,160.0125C159.43188004156974,161.09999999999997,158.57673083584893,166.49999999999997,157.93536893155837,171.0375C157.29400702726775,175.575,156.86643242440738,179.25,156.01128321868657,182.98125C155.15613401296577,186.71249999999998,153.87341020438458,190.49999999999997,153.01826099866383,192.80624999999998C152.16311179294303,195.11249999999995,151.73553719008265,195.93749999999994,151.30796258722225,195.82499999999993C150.88038798436185,195.71249999999995,150.45281338150147,194.66249999999997,150.02523877864107,195.54375C149.59766417578066,196.42499999999998,149.17008957292026,199.23749999999998,148.74251497005986,200.8125C148.31494036719948,202.3875,147.88736576433905,202.725,147.0322165586183,203.47500000000002C146.1770673528975,204.225,144.8943435443163,205.3875,144.03919433859554,207.16875C143.18404513287476,208.95,142.75647053001435,211.35,142.32889592715395,212.41875C141.90132132429355,213.48749999999998,141.47374672143314,213.22499999999997,141.04617211857277,212.49374999999998C140.61859751571237,211.76249999999996,140.19102291285196,210.56249999999997,139.7634483099916,210.41249999999997C139.33587370713119,210.2625,138.90829910427078,211.1625,138.05314989855,211.65C137.19800069282923,212.1375,135.91527688424804,212.21249999999998,135.06012767852724,214.64999999999998C134.20497847280646,217.08749999999998,133.77740386994606,221.88749999999996,133.34982926708565,224.41874999999996C132.92225466422525,226.94999999999996,132.49468006136487,227.21249999999998,132.06710545850447,227.58749999999998C131.63953085564407,227.96249999999998,131.21195625278366,228.45,130.78438164992326,230.19375C130.3568070470629,231.9375,129.9292324442025,234.93749999999997,129.0740832384817,234.95624999999995C128.21893403276093,234.97499999999997,126.93621022417973,232.0125,126.08106101845894,234.50625C125.22591181273815,237,124.79833720987776,244.95,124.37076260701735,250.91249999999997C123.94318800415697,256.875,123.51561340129658,260.84999999999997,123.08803879843617,265.16249999999997C122.66046419557578,269.47499999999997,122.23288959271538,274.12499999999994,121.80531498985499,276.44999999999993C121.37774038699459,278.775,120.9501657841342,278.775,120.09501657841341,277.89374999999995C119.23986737269263,277.01249999999993,117.95714356411145,275.25,117.10199435839066,272.45624999999995C116.24684515266986,269.66249999999997,115.81927054980946,265.8375,115.39169594694906,264.11249999999995C114.96412134408867,262.38749999999993,114.53654674122828,262.76249999999993,114.10897213836789,262.0875C113.6813975355075,261.41249999999997,113.2538229326471,259.68749999999994,112.18488642549612,256.72499999999997C111.11594991834512,253.76249999999996,109.40565150690355,249.56249999999997,108.33671499975256,246.14999999999998C107.26777849260156,242.73749999999998,106.84020388974116,240.11249999999998,106.41262928688076,239.86875C105.98505468402037,239.625,105.55748008115998,241.7625,105.12990547829959,243.43124999999998C104.7023308754392,245.1,104.2747562725788,246.3,103.8471816697184,244.4625C103.419607066858,242.625,102.99203246399762,237.74999999999997,102.13688325827682,236.54999999999995C101.28173405255603,235.34999999999997,99.99901024397485,237.825,99.14386103825406,234.13124999999997C98.28871183253327,230.43749999999997,97.86113722967288,220.57499999999996,97.43356262681249,215.02499999999998C97.00598802395209,209.47499999999997,96.57841342109168,208.23749999999995,96.15083881823129,209.11874999999998C95.7232642153709,209.99999999999997,95.29568961251051,213,94.86811500965011,215.925C94.44054040678972,218.85,94.01296580392932,221.7,93.15781659820853,222.69374999999997C92.30266739248773,223.68749999999997,91.01994358390655,222.82499999999996,90.16479437818577,222.80624999999998C89.30964517246498,222.78749999999997,88.8820705696046,223.61249999999995,88.4544959667442,222.28124999999997C88.0269213638838,220.94999999999996,87.59934676102341,217.46249999999998,87.17177215816301,216.03749999999997C86.7441975553026,214.61249999999998,86.31662295244222,215.25,85.88904834958183,214.44375C85.46147374672142,213.6375,85.03389914386102,211.3875,84.17874993814024,210.46875C83.32360073241945,209.54999999999995,82.04087692383827,209.96249999999998,81.18572771811748,211.40624999999994C80.3305785123967,212.84999999999997,79.9030039095363,215.325,79.4754293066759,211.83749999999998C79.0478547038155,208.34999999999997,78.62028010095511,198.89999999999998,78.19270549809471,195.28124999999994C77.76513089523431,191.66249999999997,77.33755629237392,193.87499999999994,76.90998168951353,194.43749999999994C76.48240708665313,194.99999999999994,76.05483248379274,193.91249999999997,75.19968327807194,195.16875C74.34453407235117,196.42499999999998,73.06181026376998,200.02499999999998,72.20666105804918,203.1375C71.3515118523284,206.25,70.923937249468,208.875,70.49636264660761,210.31875C70.06878804374722,211.7625,69.64121344088682,212.02499999999998,69.21363883802643,212.06249999999997C68.78606423516602,212.09999999999997,68.35848963230563,211.9125,67.93091502944523,209.775C67.50334042658484,207.6375,67.07576582372444,203.55,66.22061661800365,199.95C65.36546741228287,196.35,64.08274360370169,193.2375,63.22759439798089,189.4875C62.3724451922601,185.73749999999998,61.944870589399706,181.34999999999997,61.51729598653931,177.80624999999998C61.08972138367892,174.2625,60.662146780818524,171.5625,60.23457217795813,169.125C59.80699757509774,166.6875,59.37942297223735,164.5125,58.951848369376954,162.86249999999998C58.52427376651656,161.21249999999998,58.096699163656154,160.08749999999998,57.24154995793536,158.66249999999997C56.38640075221457,157.23749999999998,55.10367694363339,155.5125,54.248527737912596,154.89375C53.393378532191804,154.275,52.965803929331415,154.7625,52.538229326471026,156.45C52.11065472361062,158.1375,51.68308012075023,161.02499999999998,51.25550551788983,161.75624999999997C50.82793091502944,162.48749999999995,50.40035631216905,161.06249999999997,49.972781709308656,161.45624999999998C49.54520710644826,161.84999999999997,49.11763250358786,164.06249999999997,48.04869599643687,167.1375C46.97975948928588,170.21249999999998,45.269461077844305,174.14999999999998,44.20052457069332,172.38749999999996C43.13158806354233,170.62499999999997,42.704013460681935,163.16249999999997,42.276438857821546,158.41875C41.84886425496115,153.67499999999998,41.421289652100754,151.64999999999998,40.99371504924036,149.85C40.56614044637996,148.04999999999998,40.13856584351957,146.47499999999997,39.28341663779878,146.11874999999998C38.42826743207799,145.7625,37.145543623496806,146.625,36.290394417776014,144.95624999999998C35.43524521205523,143.2875,35.00767060919483,139.08749999999998,34.580096006334436,136.83749999999998C34.15252140347404,134.58749999999998,33.72494680061365,134.28749999999997,33.297372197753255,134.96249999999995C32.86979759489286,135.63749999999996,32.44222299203246,137.28749999999997,32.014648389172066,143.83124999999998C31.58707378631167,150.37499999999997,31.159499183451274,161.81249999999994,30.304349977730485,170.19374999999994C29.449200772009696,178.57499999999993,28.16647696342851,183.89999999999995,27.31132775770772,186.48749999999998C26.45617855198693,189.07499999999996,26.028603949126538,188.92499999999995,25.601029346266145,189.0375C25.17345474340575,189.14999999999998,24.745880140545353,189.52499999999998,24.31830553768496,190.12499999999997C23.890730934824564,190.72499999999997,23.46315633196417,191.54999999999998,23.035581729103775,191.79375000000002C22.60800712624338,192.0375,22.180432523382983,191.7,21.325283317662194,193.875C20.470134111941405,196.05,19.187410303360217,200.73749999999998,18.33226109763943,203.0625C17.47711189191864,205.3875,17.049537289058243,205.34999999999997,16.62196268619785,204.26249999999993C16.194388083337458,203.17499999999995,15.766813480477062,201.03749999999997,15.339238877616667,198.13124999999997C14.911664274756273,195.22499999999997,14.484089671895877,191.54999999999998,14.05651506903548,191.23125C13.628940466175086,190.9125,13.201365863314692,193.95,12.35512446182016,200.5125C11.508883060325628,207.075,10.24397486019696,217.16249999999997,9.39773345870243,221.83124999999995C8.551492057207899,226.49999999999997,8.123917454347502,225.75,7.696342851487108,224.90625C7.268768248626713,224.0625,6.841193645766318,223.125,6.413619042905924,222.1875C5.986044440045529,221.25,5.558469837185134,220.31249999999997,5.130895234324739,218.92499999999998C4.703320631464344,217.53749999999997,4.275746028603948,215.7,3.4205968228831587,208.05C2.565447617162369,200.4,1.2827238085811845,186.9375,0.6413619042905923,180.20624999999998C0,173.47499999999997,0,173.47499999999997,0,173.47499999999997L0,450C0,450,0,450,0.6413619042905923,450C1.2827238085811845,450,2.565447617162369,450,3.4205968228831587,450C4.275746028603948,450,4.703320631464344,450,5.130895234324738,450C5.558469837185134,450,5.986044440045529,450,6.413619042905923,450C6.841193645766318,450,7.268768248626713,450,7.696342851487107,450C8.123917454347502,450,8.551492057207899,450,9.39773345870243,450C10.24397486019696,450,11.508883060325628,450,12.35512446182016,450C13.201365863314692,450,13.628940466175086,450,14.05651506903548,450C14.484089671895877,450,14.911664274756273,450,15.339238877616667,450C15.766813480477062,450,16.194388083337458,450,16.62196268619785,450C17.049537289058243,450,17.47711189191864,450,18.332261097639428,450C19.187410303360217,450,20.470134111941405,450,21.325283317662194,450C22.180432523382983,450,22.60800712624338,450,23.035581729103775,450C23.46315633196417,450,23.890730934824564,450,24.31830553768496,450C24.745880140545353,450,25.17345474340575,450,25.601029346266145,450C26.028603949126538,450,26.45617855198693,450,27.311327757707723,450C28.16647696342851,450,29.449200772009696,450,30.304349977730485,450C31.159499183451274,450,31.58707378631167,450,32.014648389172066,450C32.44222299203246,450,32.86979759489286,450,33.29737219775325,450C33.72494680061365,450,34.15252140347404,450,34.580096006334436,450C35.00767060919483,450,35.43524521205523,450,36.29039441777602,450C37.145543623496806,450,38.42826743207799,450,39.28341663779878,450C40.13856584351957,450,40.56614044637996,450,40.99371504924036,450C41.421289652100754,450,41.84886425496115,450,42.27643885782154,450C42.704013460681935,450,43.13158806354233,450,44.20052457069332,450C45.269461077844305,450,46.97975948928588,450,48.04869599643688,450C49.11763250358786,450,49.54520710644826,450,49.972781709308656,450C50.40035631216905,450,50.82793091502944,450,51.25550551788984,450C51.68308012075023,450,52.11065472361062,450,52.538229326471026,450C52.965803929331415,450,53.393378532191804,450,54.248527737912596,450C55.10367694363339,450,56.38640075221457,450,57.24154995793536,450C58.096699163656154,450,58.52427376651656,450,58.951848369376954,450C59.37942297223735,450,59.80699757509774,450,60.234572177958135,450C60.662146780818524,450,61.08972138367892,450,61.51729598653931,450C61.944870589399706,450,62.3724451922601,450,63.227594397980894,450C64.08274360370169,450,65.36546741228287,450,66.22061661800365,450C67.07576582372444,450,67.50334042658484,450,67.93091502944525,450C68.35848963230563,450,68.78606423516602,450,69.21363883802641,450C69.64121344088682,450,70.06878804374722,450,70.49636264660761,450C70.923937249468,450,71.3515118523284,450,72.20666105804919,450C73.06181026376998,450,74.34453407235117,450,75.19968327807194,450C76.05483248379274,450,76.48240708665313,450,76.90998168951353,450C77.33755629237392,450,77.76513089523431,450,78.19270549809471,450C78.62028010095511,450,79.0478547038155,450,79.4754293066759,450C79.9030039095363,450,80.3305785123967,450,81.18572771811748,450C82.04087692383827,450,83.32360073241945,450,84.17874993814024,450C85.03389914386102,450,85.46147374672142,450,85.88904834958183,450C86.31662295244222,450,86.7441975553026,450,87.17177215816301,450C87.59934676102341,450,88.0269213638838,450,88.4544959667442,450C88.8820705696046,450,89.30964517246498,450,90.16479437818576,450C91.01994358390655,450,92.30266739248773,450,93.15781659820854,450C94.01296580392932,450,94.44054040678972,450,94.86811500965013,450C95.29568961251051,450,95.7232642153709,450,96.15083881823129,450C96.57841342109168,450,97.00598802395209,450,97.43356262681249,450C97.86113722967288,450,98.28871183253327,450,99.14386103825406,450C99.99901024397485,450,101.28173405255603,450,102.13688325827682,450C102.99203246399762,450,103.419607066858,450,103.8471816697184,450C104.2747562725788,450,104.7023308754392,450,105.12990547829959,450C105.55748008115998,450,105.98505468402037,450,106.41262928688077,450C106.84020388974116,450,107.26777849260156,450,108.33671499975256,450C109.40565150690355,450,111.11594991834512,450,112.1848864254961,450C113.2538229326471,450,113.6813975355075,450,114.10897213836789,450C114.53654674122828,450,114.96412134408867,450,115.39169594694906,450C115.81927054980946,450,116.24684515266986,450,117.10199435839066,450C117.95714356411145,450,119.23986737269263,450,120.09501657841341,450C120.9501657841342,450,121.37774038699459,450,121.80531498985499,450C122.23288959271538,450,122.66046419557578,450,123.08803879843617,450C123.51561340129658,450,123.94318800415697,450,124.37076260701737,450C124.79833720987776,450,125.22591181273815,450,126.08106101845894,450C126.93621022417973,450,128.21893403276093,450,129.0740832384817,450C129.9292324442025,450,130.3568070470629,450,130.7843816499233,450C131.21195625278366,450,131.63953085564407,450,132.06710545850444,450C132.49468006136487,450,132.92225466422525,450,133.34982926708565,450C133.77740386994606,450,134.20497847280646,450,135.06012767852724,450C135.91527688424804,450,137.19800069282923,450,138.05314989855,450C138.90829910427078,450,139.33587370713119,450,139.7634483099916,450C140.19102291285196,450,140.61859751571237,450,141.04617211857277,450C141.47374672143314,450,141.90132132429355,450,142.32889592715395,450C142.75647053001435,450,143.18404513287476,450,144.03919433859554,450C144.8943435443163,450,146.1770673528975,450,147.03221655861827,450C147.88736576433905,450,148.31494036719948,450,148.74251497005986,450C149.17008957292026,450,149.59766417578066,450,150.02523877864104,450C150.45281338150147,450,150.88038798436185,450,151.30796258722225,450C151.73553719008265,450,152.16311179294303,450,153.0182609986638,450C153.87341020438458,450,155.15613401296577,450,156.01128321868657,450C156.86643242440738,450,157.29400702726775,450,157.93536893155837,450C158.57673083584893,450,159.43188004156974,450,160.0732419458603,450C160.7146038501509,450,161.1421784530113,450,161.99732765873208,450C162.85247686445288,450,164.13520067303406,450,164.99034987875487,450C165.84549908447565,450,166.27307368733608,450,166.70064829019645,450C167.12822289305686,450,167.55579749591726,450,167.98337209877764,450C168.41094670163804,450,168.8385213044984,450,169.26609590735882,450C169.6936705102192,450,170.1212451130796,450,170.9763943188004,450C171.83154352452118,450,173.11426733310236,450,173.96941653882317,450C174.82456574454395,450,175.25214034740435,450,175.67971495026472,450C176.10728955312516,450,176.53486415598553,450,176.96243875884593,450C177.39001336170634,450,177.8175879645667,450,178.2451625674271,450C178.6727371702875,450,179.1003117731479,450,179.95546097886867,450C180.81061018458948,450,182.09333399317066,450,182.94848319889144,450C183.80363240461224,450,184.23120700747262,450,184.65878161033302,450C185.08635621319343,450,185.51393081605383,450,185.94150541891423,450C186.3690800217746,450,186.796654624635,450,187.2242292274954,450C187.6518038303558,450,188.0793784332162,450,188.934527638937,450C189.78967684465778,450,191.07240065323896,450,191.92754985895976,450C192.78269906468054,450,193.21027366754095,450,193.63784827040132,450C194.06542287326172,450,194.49299747612213,450,194.92057207898253,450C195.34814668184293,450,195.7757212847033,450,196.2032958875637,450C196.6308704904241,450,197.0584450932845,450,197.91359429900527,450C198.76874350472605,450,200.05146731330723,450,200.90661651902803,450C201.7617657247488,450,202.18934032760922,450,202.61691493046962,450C203.04448953333002,450,203.4720641361904,450,203.8996387390508,450C204.3272133419112,450,204.75478794477158,450,205.182362547632,450C205.60993715049239,450,206.03751175335276,450,206.89266095907357,450C207.74781016479434,450,209.03053397337553,450,209.8856831790963,450C210.7408323848171,450,211.1684069876775,450,211.5959815905379,450C212.0235561933983,450,212.4511307962587,450,212.8787053991191,450C213.30628000197947,450,213.7338546048399,450,214.16142920770028,450C214.58900381056068,450,215.0165784134211,450,215.87172761914186,450C216.72687682486264,450,218.00960063344382,450,218.86474983916463,450C219.7198990448854,450,220.1474736477458,450,220.57504825060622,450C221.00262285346662,450,221.430197456327,450,221.85777205918737,450C222.2853466620478,450,222.71292126490818,450,223.1404958677686,450C223.56807047062898,450,223.99564507348936,450,224.85079427921016,450C225.70594348493094,450,226.98866729351212,450,227.84381649923293,450C228.6989657049537,450,229.1265403078141,450,229.5541149106745,450C229.9816895135349,450,230.4092641163953,450,230.8368387192557,450C231.26441332211607,450,231.6919879249765,450,232.11956252783688,450C232.54713713069728,450,232.97471173355768,450,234.04364824070865,450C235.11258474785964,450,236.82288315930123,450,237.89181966645222,450C238.96075617360322,450,239.3883307764636,450,239.815905379324,450C240.24347998218437,450,240.67105458504477,450,241.09862918790515,450C241.52620379076555,450,241.95377839362595,450,242.80892759934676,450C243.66407680506754,450,244.94680061364872,450,245.8019498193695,450C246.6570990250903,450,247.0846736279507,450,247.51224823081108,450C247.93982283367149,450,248.3673974365319,450,248.7949720393923,450C249.22254664225267,450,249.65012124511304,450,250.07769584797344,450C250.50527045083385,450,250.93284505369425,450,251.78799425941503,450C252.64314346513584,450,253.92586727371702,450,254.7810164794378,450C255.63616568515857,450,256.06374028801895,450,256.4913148908794,450C256.91888949373975,450,257.34646409660013,450,257.77403869946056,450C258.20161330232094,450,258.6291879051813,450,259.05676250804174,450C259.4843371109022,450,259.91191171376255,450,260.76706091948336,450C261.6222101252041,450,262.9049339337853,450,263.76008313950604,450C264.6152323452269,450,265.0428069480873,450,265.4703815509477,450C265.8979561538081,450,266.3255307566685,450,266.7531053595289,450C267.18067996238926,450,267.60825456524964,450,268.03582916811,450C268.46340377097044,450,268.8909783738309,450,269.7461275795516,450C270.60127678527243,450,271.8840005938536,450,272.7391497995744,450C273.59429900529517,450,274.0218736081556,450,274.449448211016,450C274.87702281387635,450,275.3045974167367,450,275.7321720195971,450C276.15974662245753,450,276.58732122531796,450,277.01489582817834,450C277.4424704310387,450,277.87004503389915,450,278.7251942396199,450C279.5803434453407,450,280.8630672539219,450,281.7182164596427,450C282.5733656653635,450,283.00094026822387,450,283.4285148710843,450C283.8560894739447,450,284.28366407680505,450,284.7112386796655,450C285.13881328252586,450,285.56638788538623,450,285.9939624882466,450C286.421537091107,450,286.8491116939674,450,287.70426089968817,450C288.559410105409,450,289.8421339139902,450,290.697283119711,450C291.55243232543177,450,291.98000692829214,450,292.4075815311526,450C292.83515613401295,450,293.2627307368733,450,293.69030533973375,450C294.11787994259413,450,294.5454545454545,450,294.97302914831494,450C295.4006037511753,450,295.8281783540357,450,296.6833275597565,450C297.5384767654773,450,298.8212005740585,450,299.67634977977923,450C300.5314989855001,450,300.95907358836047,450,301.3866481912209,450C301.8142227940813,450,302.2417973969417,450,302.6693719998021,450C303.09694660266246,450,303.52452120552283,450,303.9520958083832,450C304.3796704112436,450,304.80724501410396,450,306.08996882268514,450C307.3726926312663,450,309.51056564556836,450,310.79328945414954,450C312.0760132627307,450,312.50358786559116,450,312.93116246845153,450C313.3587370713119,450,313.78631167417234,450,314.65036868411937,450C315.5144256940664,450,316.8149651111001,450,317.6790221210471,450C318.5430791309942,450,318.97065373385453,450,319.39822833671496,450C319.82580293957534,450,320.2533775424357,450,320.68095214529615,450C321.1085267481565,450,321.5361013510169,450,321.9636759538773,450C322.3912505567377,450,322.8188251595981,450,323.67397436531894,450C324.5291235710397,450,325.8118473796209,450,326.6669965853417,450C327.5221457910625,450,327.9497203939229,450,328.3772949967833,450C328.80486959964367,450,329.23244420250404,450,329.6600188053644,450C330.08759340822485,450,330.5151680110853,450,330.94274261394565,450C331.37031721680603,450,331.79789181966646,450,332.6530410253872,450C333.508190231108,450,334.7909140396892,450,335.64606324541,450C336.50121245113075,450,336.92878705399113,450,337.3563616568515,450C337.78393625971194,450,338.21151086257237,450,338.85287276686296,450C339.49423467115355,450,340.3493838768743,450,341.4183203840253,450C342.4872568911763,450,343.7699806997575,450,344.62512990547833,450C345.4802791111991,450,345.90785371405946,450,346.3354283169199,450C346.76300291978026,450,347.19057752264064,450,347.61815212550107,450C348.04572672836144,450,348.4733013312218,450,348.90087593408225,450C349.3284505369426,450,349.756025139803,450,350.6111743455238,450C351.4663235512446,450,352.7490473598258,450,353.60419656554654,450C354.45934577126735,450,354.8869203741277,450,355.31449497698816,450C355.74206957984853,450,356.1696441827089,450,356.59721878556934,450C357.0247933884297,450,357.4523679912901,450,357.87994259415046,450C358.3075171970109,450,358.73509179987127,450,359.59024100559213,450C360.4453902113129,450,361.72811401989406,450,362.58326322561487,450C363.4384124313357,450,363.8659870341961,450,364.2935616370565,450C364.72113623991686,450,365.14871084277723,450,365.5762854456376,450C366.00386004849804,450,366.4314346513585,450,366.85900925421885,450C367.2865838570792,450,367.7141584599396,450,368.5693076656604,450C369.42445687138115,450,370.70718067996233,450,371.5623298856832,450C372.41747909140395,450,372.8450536942643,450,373.2726282971247,450C373.70020289998513,450,374.12777750284556,450,374.55535210570594,450C374.9829267085663,450,375.41050131142674,450,375.8380759142871,450C376.2656505171475,450,376.69322512000787,450,377.5483743257287,450C378.4035235314495,450,379.6862473400307,450,380.7551838471817,450C381.82412035433265,450,382.67926956005346,450,383.32063146434405,450C383.9619933686346,450,384.389567971495,450,384.81714257435533,450C385.24471717721576,450,385.6722917800762,450,386.52744098579694,450C387.38259019151775,450,388.66531400009893,450,389.7342505072499,450C390.8031870144009,450,391.6583362201217,450,392.2996981244123,450C392.9410600287029,450,393.3686346315633,450,393.79620923442366,450C394.22378383728403,450,394.65135844014446,450,395.50650764586527,450C396.3616568515861,450,397.64438066016726,450,398.499529865888,450C399.3546790716088,450,399.7822536744692,450,400.2098282773296,450C400.63740288019,450,401.06497748305037,450,401.49255208591075,450C401.9201266887711,450,402.34770129163155,450,402.775275894492,450C403.20285049735236,450,403.63042510021273,450,404.48557430593354,450C405.34072351165435,450,406.6234473202355,450,407.47859652595633,450C408.33374573167714,450,408.7613203345375,450,409.1888949373979,450C409.6164695402583,450,410.04404414311875,450,410.47161874597913,450C410.8991933488395,450,411.3267679516999,450,411.75434255456025,450C412.1819171574207,450,412.60949176028106,450,413.6784282674321,450C414.74736477458305,450,416.45766318602466,450,417.5265996931756,450C418.5955362003266,450,419.02311080318697,450,419.45068540604734,450C419.8782600089078,450,420.30583461176815,450,420.7334092146285,450C421.16098381748895,450,421.5885584203494,450,422.44370762607014,450C423.29885683179094,450,424.5815806403721,450,425.43672984609293,450C426.2918790518137,450,426.71945365467406,450,427.14702825753443,450C427.57460286039486,450,428.0021774632553,450,428.4297520661157,450C428.8573266689761,450,429.2849012718365,450,429.71247587469685,450C430.1400504775572,450,430.56762508041766,450,431.4227742861384,450C432.2779234918592,450,433.56064730044034,450,434.41579650616114,450C435.27094571188195,450,435.6985203147423,450,436.1260949176027,450C436.55366952046313,450,436.98124412332356,450,437.40881872618394,450C437.8363933290443,450,438.26396793190474,450,438.6915425347651,450C439.11911713762555,450,439.5466917404859,450,440.40184094620673,450C441.25699015192754,450,442.5397139605087,450,443.39486316622947,450C444.2500123719503,450,444.67758697481065,450,445.1051615776711,450C445.53273618053146,450,445.9603107833919,450,446.3878853862523,450C446.8154599891127,450,447.24303459197307,450,447.6706091948335,450C448.0981837976939,450,448.52575840055425,450,449.5946949077052,450C450.66363141485624,450,452.37392982629774,450,453.44286633344876,450C454.5118028405997,450,454.9393774434601,450,455.36695204632053,450C455.79452664918097,450,456.22210125204134,450,456.6496758549017,450C457.07725045776215,450,457.5048250606226,450,470.3231553422081,450C483.1414856237937,450,508.35057158410444,450,533.9961399515018,450C559.6417083188993,450,585.7237590933835,450,611.8058098678675,450C637.8878606423516,450,663.9699114168357,450,690.0519621913197,450C716.1340129658039,450,742.216063740288,450,768.3070223189983,450C794.3979808977086,450,820.4978472806451,450,846.8025931607857,450C873.1073390409263,450,899.6169644182708,450,925.4763200870984,450C951.3356757559261,450,976.5447617162368,450,1002.1903300836343,450C1027.8358984510319,450,1053.917949225516,450,1066.958974612758,450C1080,450,1080,450,1080,450Z"></path><g class="x axis" transform="translate(0,450)"><g class="tick major" style="opacity: 1;" transform="translate(38.428267432077995,0)"><line y2="6" x2="0"></line><text y="9" x="0" dy=".71em" style="text-anchor: middle;">April</text></g><g class="tick major" style="opacity: 1;" transform="translate(155.1561340129658,0)"><line y2="6" x2="0"></line><text y="9" x="0" dy=".71em" style="text-anchor: middle;">July</text></g><g class="tick major" style="opacity: 1;" transform="translate(273.1667244024348,0)"><line y2="6" x2="0"></line><text y="9" x="0" dy=".71em" style="text-anchor: middle;">October</text></g><g class="tick major" style="opacity: 1;" transform="translate(391.23076161726135,0)"><line y2="6" x2="0"></line><text y="9" x="0" dy=".71em" style="text-anchor: middle;">2013</text></g><g class="tick major" style="opacity: 1;" transform="translate(506.6224575642104,0)"><line y2="6" x2="0"></line><text y="9" x="0" dy=".71em" style="text-anchor: middle;">April</text></g><g class="tick major" style="opacity: 1;" transform="translate(623.3503241450982,0)"><line y2="6" x2="0"></line><text y="9" x="0" dy=".71em" style="text-anchor: middle;">July</text></g><g class="tick major" style="opacity: 1;" transform="translate(741.3609145345672,0)"><line y2="6" x2="0"></line><text y="9" x="0" dy=".71em" style="text-anchor: middle;">October</text></g><g class="tick major" style="opacity: 1;" transform="translate(859.4249517493938,0)"><line y2="6" x2="0"></line><text y="9" x="0" dy=".71em" style="text-anchor: middle;">2014</text></g><g class="tick major" style="opacity: 1;" transform="translate(974.8166476963428,0)"><line y2="6" x2="0"></line><text y="9" x="0" dy=".71em" style="text-anchor: middle;">April</text></g><path class="domain" d="M0,6V0H1080V6"></path><text class="labels" x="1080" y="-6" style="text-anchor: end;">Time</text></g><g class="y axis"><g class="tick major" style="opacity: 1;" transform="translate(0,450)"><line x2="-6" y2="0"></line><text x="-9" y="0" dy=".32em" style="text-anchor: end;">0</text></g><g class="tick major" style="opacity: 1;" transform="translate(0,393.75)"><line x2="-6" y2="0"></line><text x="-9" y="0" dy=".32em" style="text-anchor: end;">5</text></g><g class="tick major" style="opacity: 1;" transform="translate(0,337.5)"><line x2="-6" y2="0"></line><text x="-9" y="0" dy=".32em" style="text-anchor: end;">10</text></g><g class="tick major" style="opacity: 1;" transform="translate(0,281.25)"><line x2="-6" y2="0"></line><text x="-9" y="0" dy=".32em" style="text-anchor: end;">15</text></g><g class="tick major" style="opacity: 1;" transform="translate(0,225)"><line x2="-6" y2="0"></line><text x="-9" y="0" dy=".32em" style="text-anchor: end;">20</text></g><g class="tick major" style="opacity: 1;" transform="translate(0,168.75)"><line x2="-6" y2="0"></line><text x="-9" y="0" dy=".32em" style="text-anchor: end;">25</text></g><g class="tick major" style="opacity: 1;" transform="translate(0,112.5)"><line x2="-6" y2="0"></line><text x="-9" y="0" dy=".32em" style="text-anchor: end;">30</text></g><g class="tick major" style="opacity: 1;" transform="translate(0,56.25)"><line x2="-6" y2="0"></line><text x="-9" y="0" dy=".32em" style="text-anchor: end;">35</text></g><g class="tick major" style="opacity: 1;" transform="translate(0,0)"><line x2="-6" y2="0"></line><text x="-9" y="0" dy=".32em" style="text-anchor: end;">40</text></g><path class="domain" d="M-6,0H0V450H-6"></path><text class="labels" transform="rotate(-90)" y="6" dy=".71em" style="text-anchor: end;">Price</text></g></g></svg>