<svg width="500" height="320">
<style type="text/css">
	<![CDATA[
	.axis path,
.axis line {
  fill: none;
  stroke: #000;
  shape-rendering: crispEdges;
}
		.dot {
  stroke: #000;
  fill: url(#temperature-gradient);
}
	]]>
</style>
<g transform="translate(40,20)"><linearGradient id="temperature-gradient" gradientUnits="userSpaceOnUse" x1="193.6" y1="0" x2="237.60000000000002" y2="0"><stop offset="0%" stop-color="#C0392B"></stop><stop offset="50%" stop-color="#2980B9"></stop><stop offset="100%" stop-color="#27AE60"></stop></linearGradient><g class="x axis" transform="translate(0,270)"><g class="tick major" style="opacity: 1;" transform="translate(0,0)"><line y2="6" x2="0"></line><text y="9" x="0" dy=".71em" style="text-anchor: middle;">0</text></g><g class="tick major" style="opacity: 1;" transform="translate(44,0)"><line y2="6" x2="0"></line><text y="9" x="0" dy=".71em" style="text-anchor: middle;">5</text></g><g class="tick major" style="opacity: 1;" transform="translate(88,0)"><line y2="6" x2="0"></line><text y="9" x="0" dy=".71em" style="text-anchor: middle;">10</text></g><g class="tick major" style="opacity: 1;" transform="translate(132,0)"><line y2="6" x2="0"></line><text y="9" x="0" dy=".71em" style="text-anchor: middle;">15</text></g><g class="tick major" style="opacity: 1;" transform="translate(176,0)"><line y2="6" x2="0"></line><text y="9" x="0" dy=".71em" style="text-anchor: middle;">20</text></g><g class="tick major" style="opacity: 1;" transform="translate(220,0)"><line y2="6" x2="0"></line><text y="9" x="0" dy=".71em" style="text-anchor: middle;">25</text></g><g class="tick major" style="opacity: 1;" transform="translate(264,0)"><line y2="6" x2="0"></line><text y="9" x="0" dy=".71em" style="text-anchor: middle;">30</text></g><g class="tick major" style="opacity: 1;" transform="translate(308.00000000000006,0)"><line y2="6" x2="0"></line><text y="9" x="0" dy=".71em" style="text-anchor: middle;">35</text></g><g class="tick major" style="opacity: 1;" transform="translate(352,0)"><line y2="6" x2="0"></line><text y="9" x="0" dy=".71em" style="text-anchor: middle;">40</text></g><g class="tick major" style="opacity: 1;" transform="translate(396,0)"><line y2="6" x2="0"></line><text y="9" x="0" dy=".71em" style="text-anchor: middle;">45</text></g><g class="tick major" style="opacity: 1;" transform="translate(440,0)"><line y2="6" x2="0"></line><text y="9" x="0" dy=".71em" style="text-anchor: middle;">50</text></g><path class="domain" d="M0,6V0H440V6"></path><text class="label" x="440" y="-6" style="text-anchor: end;">Price ($)</text></g><g class="axis"><g class="tick major" style="opacity: 1;" transform="translate(0,270)"><line x2="-6" y2="0"></line><text x="-9" y="0" dy=".32em" style="text-anchor: end;">0.1</text></g><g class="tick major" style="opacity: 1;" transform="translate(0,231.42857142857144)"><line x2="-6" y2="0"></line><text x="-9" y="0" dy=".32em" style="text-anchor: end;">0.2</text></g><g class="tick major" style="opacity: 1;" transform="translate(0,192.8571428571429)"><line x2="-6" y2="0"></line><text x="-9" y="0" dy=".32em" style="text-anchor: end;">0.3</text></g><g class="tick major" style="opacity: 1;" transform="translate(0,154.28571428571428)"><line x2="-6" y2="0"></line><text x="-9" y="0" dy=".32em" style="text-anchor: end;">0.4</text></g><g class="tick major" style="opacity: 1;" transform="translate(0,115.71428571428572)"><line x2="-6" y2="0"></line><text x="-9" y="0" dy=".32em" style="text-anchor: end;">0.5</text></g><g class="tick major" style="opacity: 1;" transform="translate(0,77.14285714285717)"><line x2="-6" y2="0"></line><text x="-9" y="0" dy=".32em" style="text-anchor: end;">0.6</text></g><g class="tick major" style="opacity: 1;" transform="translate(0,38.57142857142861)"><line x2="-6" y2="0"></line><text x="-9" y="0" dy=".32em" style="text-anchor: end;">0.7</text></g><g class="tick major" style="opacity: 1;" transform="translate(0,0)"><line x2="-6" y2="0"></line><text x="-9" y="0" dy=".32em" style="text-anchor: end;">0.8</text></g><path class="domain" d="M-6,0H0V270H-6"></path><text class="label" transform="rotate(-90)" y="6" dy=".71em" style="text-anchor: end;">Predictive Record</text></g><circle class="dot" r="3" cx="27.632000000000005" cy="192.8571428571429"></circle><circle class="dot" r="3.5999999999999996" cx="40.744" cy="169.71428571428572"></circle><circle class="dot" r="5.5" cx="51.568000000000005" cy="96.42857142857142"></circle><circle class="dot" r="3.9000000000000004" cx="58.96" cy="158.14285714285717"></circle><circle class="dot" r="5.2" cx="59.135999999999996" cy="108"></circle><circle class="dot" r="5.6000000000000005" cx="60.104" cy="92.57142857142858"></circle><circle class="dot" r="4.5" cx="61.687999999999995" cy="135.00000000000003"></circle><circle class="dot" r="2.3000000000000003" cx="66.44" cy="219.85714285714286"></circle><circle class="dot" r="5.6000000000000005" cx="67.144" cy="92.57142857142858"></circle><circle class="dot" r="4.699999999999999" cx="68.024" cy="127.2857142857143"></circle><circle class="dot" r="2.2" cx="68.46400000000001" cy="223.71428571428572"></circle><circle class="dot" r="4" cx="70.928" cy="154.28571428571428"></circle><circle class="dot" r="4.4" cx="77.70400000000001" cy="138.8571428571429"></circle><circle class="dot" r="3.3000000000000003" cx="93.632" cy="181.2857142857143"></circle><circle class="dot" r="4.9" cx="94.77600000000001" cy="119.57142857142858"></circle><circle class="dot" r="4" cx="95.128" cy="154.28571428571428"></circle><circle class="dot" r="3.4000000000000004" cx="95.65599999999999" cy="177.42857142857144"></circle><circle class="dot" r="4.2" cx="98.912" cy="146.5714285714286"></circle><circle class="dot" r="2.4" cx="99.528" cy="216"></circle><circle class="dot" r="5.2" cx="109.472" cy="108"></circle><circle class="dot" r="1.4000000000000001" cx="110.616" cy="254.57142857142856"></circle><circle class="dot" r="4.2" cx="110.704" cy="146.5714285714286"></circle><circle class="dot" r="4.1" cx="112.11200000000001" cy="150.42857142857144"></circle><circle class="dot" r="3.7" cx="113.08" cy="165.85714285714286"></circle><circle class="dot" r="4.3" cx="114.488" cy="142.71428571428575"></circle><circle class="dot" r="5.5" cx="119.504" cy="96.42857142857142"></circle><circle class="dot" r="3.4000000000000004" cx="122.144" cy="177.42857142857144"></circle><circle class="dot" r="4.699999999999999" cx="125.13600000000002" cy="127.2857142857143"></circle><circle class="dot" r="5.2" cx="128.12800000000001" cy="108"></circle><circle class="dot" r="4.6000000000000005" cx="128.216" cy="131.14285714285717"></circle><circle class="dot" r="5.5" cx="128.48" cy="96.42857142857142"></circle><circle class="dot" r="3.7" cx="129.272" cy="165.85714285714286"></circle><circle class="dot" r="6.1" cx="129.35999999999999" cy="73.2857142857143"></circle><circle class="dot" r="4.2" cx="130.064" cy="146.5714285714286"></circle><circle class="dot" r="6.2" cx="130.50400000000002" cy="69.42857142857144"></circle><circle class="dot" r="5.300000000000001" cx="132.44000000000003" cy="104.14285714285714"></circle><circle class="dot" r="5.699999999999999" cx="132.88" cy="88.71428571428575"></circle><circle class="dot" r="5" cx="134.288" cy="115.71428571428572"></circle><circle class="dot" r="3.4000000000000004" cx="138.688" cy="177.42857142857144"></circle><circle class="dot" r="5.1" cx="139.12800000000001" cy="111.85714285714289"></circle><circle class="dot" r="4.4" cx="139.304" cy="138.8571428571429"></circle><circle class="dot" r="5.699999999999999" cx="139.656" cy="88.71428571428575"></circle><circle class="dot" r="5.1" cx="140.096" cy="111.85714285714289"></circle><circle class="dot" r="4.5" cx="140.624" cy="135.00000000000003"></circle><circle class="dot" r="5.2" cx="141.328" cy="108"></circle><circle class="dot" r="4.1" cx="141.416" cy="150.42857142857144"></circle><circle class="dot" r="5.8" cx="142.11999999999998" cy="84.85714285714289"></circle><circle class="dot" r="4.2" cx="142.472" cy="146.5714285714286"></circle><circle class="dot" r="5.4" cx="144.76000000000002" cy="100.28571428571428"></circle><circle class="dot" r="6.1" cx="144.76000000000002" cy="73.2857142857143"></circle><circle class="dot" r="4.6000000000000005" cx="146.51999999999998" cy="131.14285714285717"></circle><circle class="dot" r="4" cx="146.608" cy="154.28571428571428"></circle><circle class="dot" r="4.6000000000000005" cx="147.224" cy="131.14285714285717"></circle><circle class="dot" r="3.5" cx="147.576" cy="173.5714285714286"></circle><circle class="dot" r="5.2" cx="147.66400000000002" cy="108"></circle><circle class="dot" r="6" cx="147.928" cy="77.14285714285717"></circle><circle class="dot" r="4.5" cx="148.10399999999998" cy="135.00000000000003"></circle><circle class="dot" r="3.5" cx="148.89600000000002" cy="173.5714285714286"></circle><circle class="dot" r="3.8" cx="148.89600000000002" cy="162"></circle><circle class="dot" r="6.4" cx="149.07200000000003" cy="61.71428571428572"></circle><circle class="dot" r="4.6000000000000005" cx="149.68800000000002" cy="131.14285714285717"></circle><circle class="dot" r="3.8" cx="151.35999999999999" cy="162"></circle><circle class="dot" r="4.4" cx="151.8" cy="138.8571428571429"></circle><circle class="dot" r="5.6000000000000005" cx="152.416" cy="92.57142857142858"></circle><circle class="dot" r="3.5" cx="154.792" cy="173.5714285714286"></circle><circle class="dot" r="4.9" cx="155.14399999999998" cy="119.57142857142858"></circle><circle class="dot" r="5.1" cx="155.232" cy="111.85714285714289"></circle><circle class="dot" r="6.6000000000000005" cx="155.496" cy="54.00000000000003"></circle><circle class="dot" r="2.8000000000000003" cx="156.024" cy="200.57142857142858"></circle><circle class="dot" r="5.2" cx="156.552" cy="108"></circle><circle class="dot" r="4.9" cx="157.608" cy="119.57142857142858"></circle><circle class="dot" r="4.1" cx="159.10399999999998" cy="150.42857142857144"></circle><circle class="dot" r="5.8" cx="159.632" cy="84.85714285714289"></circle><circle class="dot" r="5.1" cx="160.16" cy="111.85714285714289"></circle><circle class="dot" r="6.800000000000001" cx="160.336" cy="46.285714285714306"></circle><circle class="dot" r="4.2" cx="160.68800000000002" cy="146.5714285714286"></circle><circle class="dot" r="7.3" cx="160.68800000000002" cy="27.00000000000003"></circle><circle class="dot" r="7.1" cx="161.216" cy="34.71428571428575"></circle><circle class="dot" r="5.699999999999999" cx="162.536" cy="88.71428571428575"></circle><circle class="dot" r="4" cx="162.62400000000002" cy="154.28571428571428"></circle><circle class="dot" r="4" cx="162.712" cy="154.28571428571428"></circle><circle class="dot" r="5.300000000000001" cx="163.06400000000002" cy="104.14285714285714"></circle><circle class="dot" r="4.3" cx="163.504" cy="142.71428571428575"></circle><circle class="dot" r="4.3" cx="163.592" cy="142.71428571428575"></circle><circle class="dot" r="3.9000000000000004" cx="163.68000000000004" cy="158.14285714285717"></circle><circle class="dot" r="5.8" cx="163.768" cy="84.85714285714289"></circle><circle class="dot" r="5.6000000000000005" cx="163.944" cy="92.57142857142858"></circle><circle class="dot" r="5.300000000000001" cx="164.29600000000002" cy="104.14285714285714"></circle><circle class="dot" r="5.6000000000000005" cx="165.08800000000002" cy="92.57142857142858"></circle><circle class="dot" r="4.3" cx="166.32" cy="142.71428571428575"></circle><circle class="dot" r="4.699999999999999" cx="166.40800000000002" cy="127.2857142857143"></circle><circle class="dot" r="3.5" cx="166.49600000000004" cy="173.5714285714286"></circle><circle class="dot" r="5.699999999999999" cx="166.76" cy="88.71428571428575"></circle><circle class="dot" r="4.9" cx="166.848" cy="119.57142857142858"></circle><circle class="dot" r="5.300000000000001" cx="166.93599999999998" cy="104.14285714285714"></circle><circle class="dot" r="6.1" cx="167.024" cy="73.2857142857143"></circle><circle class="dot" r="3.8" cx="167.376" cy="162"></circle><circle class="dot" r="4.699999999999999" cx="167.376" cy="127.2857142857143"></circle><circle class="dot" r="4.699999999999999" cx="168.08000000000004" cy="127.2857142857143"></circle><circle class="dot" r="6.2" cx="168.168" cy="69.42857142857144"></circle><circle class="dot" r="4.6000000000000005" cx="168.43200000000002" cy="131.14285714285717"></circle><circle class="dot" r="4.4" cx="168.696" cy="138.8571428571429"></circle><circle class="dot" r="5.4" cx="169.04800000000003" cy="100.28571428571428"></circle><circle class="dot" r="4.4" cx="169.136" cy="138.8571428571429"></circle><circle class="dot" r="4" cx="169.4" cy="154.28571428571428"></circle><circle class="dot" r="3.2" cx="169.84" cy="185.14285714285717"></circle><circle class="dot" r="6.5" cx="170.104" cy="57.85714285714286"></circle><circle class="dot" r="3.9000000000000004" cx="170.368" cy="158.14285714285717"></circle><circle class="dot" r="5.2" cx="170.89600000000002" cy="108"></circle><circle class="dot" r="6.7" cx="171.24800000000002" cy="50.14285714285714"></circle><circle class="dot" r="3.8" cx="171.512" cy="162"></circle><circle class="dot" r="5.4" cx="171.952" cy="100.28571428571428"></circle><circle class="dot" r="4.5" cx="172.04000000000002" cy="135.00000000000003"></circle><circle class="dot" r="6.3" cx="172.392" cy="65.57142857142858"></circle><circle class="dot" r="5" cx="172.56799999999998" cy="115.71428571428572"></circle><circle class="dot" r="4.4" cx="173.624" cy="138.8571428571429"></circle><circle class="dot" r="6.4" cx="173.712" cy="61.71428571428572"></circle><circle class="dot" r="4.3" cx="173.976" cy="142.71428571428575"></circle><circle class="dot" r="5.2" cx="174.24" cy="108"></circle><circle class="dot" r="6" cx="174.328" cy="77.14285714285717"></circle><circle class="dot" r="6.4" cx="174.504" cy="61.71428571428572"></circle><circle class="dot" r="5.8" cx="174.94400000000002" cy="84.85714285714289"></circle><circle class="dot" r="4.699999999999999" cx="175.032" cy="127.2857142857143"></circle><circle class="dot" r="6.1" cx="175.11999999999998" cy="73.2857142857143"></circle><circle class="dot" r="5.300000000000001" cx="175.38400000000001" cy="104.14285714285714"></circle><circle class="dot" r="5.2" cx="175.56" cy="108"></circle><circle class="dot" r="3.5999999999999996" cx="175.56" cy="169.71428571428572"></circle><circle class="dot" r="6.3" cx="175.736" cy="65.57142857142858"></circle><circle class="dot" r="4.1" cx="175.736" cy="150.42857142857144"></circle><circle class="dot" r="5.8999999999999995" cx="175.824" cy="81.00000000000003"></circle><circle class="dot" r="5.699999999999999" cx="175.912" cy="88.71428571428575"></circle><circle class="dot" r="4.5" cx="175.912" cy="135.00000000000003"></circle><circle class="dot" r="4.1" cx="176.08800000000002" cy="150.42857142857144"></circle><circle class="dot" r="3.8" cx="176.08800000000002" cy="162"></circle><circle class="dot" r="2.8000000000000003" cx="176.44" cy="200.57142857142858"></circle><circle class="dot" r="4.8" cx="176.616" cy="123.42857142857144"></circle><circle class="dot" r="4.3" cx="176.968" cy="142.71428571428575"></circle><circle class="dot" r="4.9" cx="177.056" cy="119.57142857142858"></circle><circle class="dot" r="5.8999999999999995" cx="177.144" cy="81.00000000000003"></circle><circle class="dot" r="4" cx="177.23200000000003" cy="154.28571428571428"></circle><circle class="dot" r="4.8" cx="177.40800000000002" cy="123.42857142857144"></circle><circle class="dot" r="4.9" cx="177.40800000000002" cy="119.57142857142858"></circle><circle class="dot" r="3.5999999999999996" cx="177.496" cy="169.71428571428572"></circle><circle class="dot" r="5" cx="177.67200000000003" cy="115.71428571428572"></circle><circle class="dot" r="4.2" cx="177.67200000000003" cy="146.5714285714286"></circle><circle class="dot" r="5" cx="178.024" cy="115.71428571428572"></circle><circle class="dot" r="4.699999999999999" cx="178.20000000000002" cy="127.2857142857143"></circle><circle class="dot" r="2.7" cx="178.81600000000003" cy="204.42857142857144"></circle><circle class="dot" r="3.5" cx="179.08" cy="173.5714285714286"></circle><circle class="dot" r="6.4" cx="179.168" cy="61.71428571428572"></circle><circle class="dot" r="5.300000000000001" cx="179.168" cy="104.14285714285714"></circle><circle class="dot" r="5" cx="179.344" cy="115.71428571428572"></circle><circle class="dot" r="6.3" cx="179.344" cy="65.57142857142858"></circle><circle class="dot" r="5.1" cx="180.136" cy="111.85714285714289"></circle><circle class="dot" r="3.4000000000000004" cx="180.136" cy="177.42857142857144"></circle><circle class="dot" r="3.5999999999999996" cx="180.22400000000002" cy="169.71428571428572"></circle><circle class="dot" r="4.4" cx="180.576" cy="138.8571428571429"></circle><circle class="dot" r="4.8" cx="180.66400000000002" cy="123.42857142857144"></circle><circle class="dot" r="4.699999999999999" cx="180.752" cy="127.2857142857143"></circle><circle class="dot" r="4.6000000000000005" cx="180.752" cy="131.14285714285717"></circle><circle class="dot" r="7" cx="180.84" cy="38.57142857142861"></circle><circle class="dot" r="4.699999999999999" cx="180.928" cy="127.2857142857143"></circle><circle class="dot" r="4.1" cx="181.016" cy="150.42857142857144"></circle><circle class="dot" r="4.3" cx="181.10399999999998" cy="142.71428571428575"></circle><circle class="dot" r="5.5" cx="181.54399999999998" cy="96.42857142857142"></circle><circle class="dot" r="4.8" cx="181.72" cy="123.42857142857144"></circle><circle class="dot" r="4.4" cx="181.89600000000002" cy="138.8571428571429"></circle><circle class="dot" r="5.2" cx="181.984" cy="108"></circle><circle class="dot" r="5.5" cx="181.984" cy="96.42857142857142"></circle><circle class="dot" r="5.8999999999999995" cx="182.07200000000003" cy="81.00000000000003"></circle><circle class="dot" r="5.300000000000001" cx="182.07200000000003" cy="104.14285714285714"></circle><circle class="dot" r="4.1" cx="182.24800000000002" cy="150.42857142857144"></circle><circle class="dot" r="3.7" cx="182.33599999999998" cy="165.85714285714286"></circle><circle class="dot" r="5.1" cx="182.512" cy="111.85714285714289"></circle><circle class="dot" r="5.1" cx="182.60000000000002" cy="111.85714285714289"></circle><circle class="dot" r="6.6000000000000005" cx="182.68800000000002" cy="54.00000000000003"></circle><circle class="dot" r="4.3" cx="182.776" cy="142.71428571428575"></circle><circle class="dot" r="4.6000000000000005" cx="182.776" cy="131.14285714285717"></circle><circle class="dot" r="4.5" cx="182.776" cy="135.00000000000003"></circle><circle class="dot" r="5.699999999999999" cx="182.952" cy="88.71428571428575"></circle><circle class="dot" r="5.1" cx="182.952" cy="111.85714285714289"></circle><circle class="dot" r="5.4" cx="183.128" cy="100.28571428571428"></circle><circle class="dot" r="5.300000000000001" cx="183.216" cy="104.14285714285714"></circle><circle class="dot" r="4.4" cx="183.65600000000003" cy="138.8571428571429"></circle><circle class="dot" r="6" cx="183.744" cy="77.14285714285717"></circle><circle class="dot" r="5.1" cx="183.832" cy="111.85714285714289"></circle><circle class="dot" r="5.1" cx="184.18400000000003" cy="111.85714285714289"></circle><circle class="dot" r="6.5" cx="184.536" cy="57.85714285714286"></circle><circle class="dot" r="5.8999999999999995" cx="184.62400000000002" cy="81.00000000000003"></circle><circle class="dot" r="3" cx="184.712" cy="192.8571428571429"></circle><circle class="dot" r="6" cx="184.712" cy="77.14285714285717"></circle><circle class="dot" r="2.9" cx="185.24" cy="196.71428571428572"></circle><circle class="dot" r="5.5" cx="185.504" cy="96.42857142857142"></circle><circle class="dot" r="3.9000000000000004" cx="185.504" cy="158.14285714285717"></circle><circle class="dot" r="4.5" cx="185.592" cy="135.00000000000003"></circle><circle class="dot" r="4.4" cx="185.68" cy="138.8571428571429"></circle><circle class="dot" r="4.5" cx="185.85600000000002" cy="135.00000000000003"></circle><circle class="dot" r="4.8" cx="185.944" cy="123.42857142857144"></circle><circle class="dot" r="6" cx="186.384" cy="77.14285714285717"></circle><circle class="dot" r="5.5" cx="186.56" cy="96.42857142857142"></circle><circle class="dot" r="7" cx="186.91199999999998" cy="38.57142857142861"></circle><circle class="dot" r="5.2" cx="186.91199999999998" cy="108"></circle><circle class="dot" r="5.8" cx="186.91199999999998" cy="84.85714285714289"></circle><circle class="dot" r="5.4" cx="187" cy="100.28571428571428"></circle><circle class="dot" r="5.8" cx="187.264" cy="84.85714285714289"></circle><circle class="dot" r="5.4" cx="187.352" cy="100.28571428571428"></circle><circle class="dot" r="5.5" cx="187.528" cy="96.42857142857142"></circle><circle class="dot" r="5.4" cx="187.616" cy="100.28571428571428"></circle><circle class="dot" r="4" cx="187.616" cy="154.28571428571428"></circle><circle class="dot" r="5.2" cx="187.70399999999998" cy="108"></circle><circle class="dot" r="4.699999999999999" cx="188.232" cy="127.2857142857143"></circle><circle class="dot" r="3.4000000000000004" cx="188.232" cy="177.42857142857144"></circle><circle class="dot" r="4.2" cx="188.49600000000004" cy="146.5714285714286"></circle><circle class="dot" r="4.2" cx="188.672" cy="146.5714285714286"></circle><circle class="dot" r="6.800000000000001" cx="188.76" cy="46.285714285714306"></circle><circle class="dot" r="5" cx="188.76" cy="115.71428571428572"></circle><circle class="dot" r="2.8000000000000003" cx="189.2" cy="200.57142857142858"></circle><circle class="dot" r="4.1" cx="189.2" cy="150.42857142857144"></circle><circle class="dot" r="5.300000000000001" cx="189.2" cy="104.14285714285714"></circle><circle class="dot" r="4.9" cx="189.376" cy="119.57142857142858"></circle><circle class="dot" r="3.7" cx="189.816" cy="165.85714285714286"></circle><circle class="dot" r="2.1" cx="189.816" cy="227.57142857142858"></circle><circle class="dot" r="3.5999999999999996" cx="190.52" cy="169.71428571428572"></circle><circle class="dot" r="6.1" cx="190.69600000000003" cy="73.2857142857143"></circle><circle class="dot" r="4" cx="190.69600000000003" cy="154.28571428571428"></circle><circle class="dot" r="4.6000000000000005" cx="190.872" cy="131.14285714285717"></circle><circle class="dot" r="3" cx="191.31199999999998" cy="192.8571428571429"></circle><circle class="dot" r="4.9" cx="191.4" cy="119.57142857142858"></circle><circle class="dot" r="5.1" cx="191.488" cy="111.85714285714289"></circle><circle class="dot" r="5.2" cx="191.488" cy="108"></circle><circle class="dot" r="5.4" cx="191.488" cy="100.28571428571428"></circle><circle class="dot" r="5.300000000000001" cx="191.488" cy="104.14285714285714"></circle><circle class="dot" r="5.8" cx="191.66400000000002" cy="84.85714285714289"></circle><circle class="dot" r="4" cx="192.016" cy="154.28571428571428"></circle><circle class="dot" r="4.699999999999999" cx="192.192" cy="127.2857142857143"></circle><circle class="dot" r="5.6000000000000005" cx="192.54399999999998" cy="92.57142857142858"></circle><circle class="dot" r="3.4000000000000004" cx="192.72" cy="177.42857142857144"></circle><circle class="dot" r="4.8" cx="192.80800000000002" cy="123.42857142857144"></circle><circle class="dot" r="6" cx="192.984" cy="77.14285714285717"></circle><circle class="dot" r="6" cx="193.072" cy="77.14285714285717"></circle><circle class="dot" r="5.5" cx="193.16" cy="96.42857142857142"></circle><circle class="dot" r="6.1" cx="193.16" cy="73.2857142857143"></circle><circle class="dot" r="4.1" cx="193.24800000000002" cy="150.42857142857144"></circle><circle class="dot" r="3.9000000000000004" cx="193.336" cy="158.14285714285717"></circle><circle class="dot" r="3.8" cx="193.68800000000002" cy="162"></circle><circle class="dot" r="4.3" cx="193.68800000000002" cy="142.71428571428575"></circle><circle class="dot" r="6.5" cx="193.776" cy="57.85714285714286"></circle><circle class="dot" r="5.699999999999999" cx="194.304" cy="88.71428571428575"></circle><circle class="dot" r="3.5" cx="194.39200000000002" cy="173.5714285714286"></circle><circle class="dot" r="6.7" cx="194.56799999999998" cy="50.14285714285714"></circle><circle class="dot" r="6" cx="194.92000000000002" cy="77.14285714285717"></circle><circle class="dot" r="3.8" cx="195.096" cy="162"></circle><circle class="dot" r="5.699999999999999" cx="195.184" cy="88.71428571428575"></circle><circle class="dot" r="4" cx="195.27200000000002" cy="154.28571428571428"></circle><circle class="dot" r="3.4000000000000004" cx="195.27200000000002" cy="177.42857142857144"></circle><circle class="dot" r="5" cx="195.36" cy="115.71428571428572"></circle><circle class="dot" r="5.1" cx="195.976" cy="111.85714285714289"></circle><circle class="dot" r="3.5999999999999996" cx="196.24" cy="169.71428571428572"></circle><circle class="dot" r="4.8" cx="196.416" cy="123.42857142857144"></circle><circle class="dot" r="5.8" cx="196.416" cy="84.85714285714289"></circle><circle class="dot" r="3.1" cx="196.68000000000004" cy="189"></circle><circle class="dot" r="5.2" cx="196.768" cy="108"></circle><circle class="dot" r="7" cx="196.856" cy="38.57142857142861"></circle><circle class="dot" r="4.5" cx="196.944" cy="135.00000000000003"></circle><circle class="dot" r="5.1" cx="196.944" cy="111.85714285714289"></circle><circle class="dot" r="4.699999999999999" cx="197.032" cy="127.2857142857143"></circle><circle class="dot" r="5.2" cx="197.11999999999998" cy="108"></circle><circle class="dot" r="4.4" cx="197.208" cy="138.8571428571429"></circle><circle class="dot" r="3.8" cx="197.208" cy="162"></circle><circle class="dot" r="5.300000000000001" cx="197.208" cy="104.14285714285714"></circle><circle class="dot" r="4.9" cx="197.208" cy="119.57142857142858"></circle><circle class="dot" r="5.8" cx="197.384" cy="84.85714285714289"></circle><circle class="dot" r="4.5" cx="197.384" cy="135.00000000000003"></circle><circle class="dot" r="4.5" cx="197.472" cy="135.00000000000003"></circle><circle class="dot" r="5.5" cx="197.56" cy="96.42857142857142"></circle><circle class="dot" r="4.6000000000000005" cx="198.17600000000002" cy="131.14285714285717"></circle><circle class="dot" r="4.6000000000000005" cx="198.17600000000002" cy="131.14285714285717"></circle><circle class="dot" r="5.6000000000000005" cx="198.26400000000004" cy="92.57142857142858"></circle><circle class="dot" r="5" cx="198.26400000000004" cy="115.71428571428572"></circle><circle class="dot" r="4.699999999999999" cx="198.26400000000004" cy="127.2857142857143"></circle><circle class="dot" r="6.1" cx="198.26400000000004" cy="73.2857142857143"></circle><circle class="dot" r="6.1" cx="198.352" cy="73.2857142857143"></circle><circle class="dot" r="3.7" cx="198.616" cy="165.85714285714286"></circle><circle class="dot" r="6.5" cx="198.616" cy="57.85714285714286"></circle><circle class="dot" r="5.2" cx="198.616" cy="108"></circle><circle class="dot" r="4.5" cx="198.704" cy="135.00000000000003"></circle><circle class="dot" r="5.5" cx="198.792" cy="96.42857142857142"></circle><circle class="dot" r="5.5" cx="198.792" cy="96.42857142857142"></circle><circle class="dot" r="5.2" cx="198.792" cy="108"></circle><circle class="dot" r="7.5" cx="198.88" cy="19.285714285714306"></circle><circle class="dot" r="4.4" cx="199.056" cy="138.8571428571429"></circle><circle class="dot" r="6.2" cx="199.144" cy="69.42857142857144"></circle><circle class="dot" r="5.699999999999999" cx="199.23200000000003" cy="88.71428571428575"></circle><circle class="dot" r="5" cx="199.23200000000003" cy="115.71428571428572"></circle><circle class="dot" r="6.8999999999999995" cx="199.23200000000003" cy="42.428571428571445"></circle><circle class="dot" r="5.300000000000001" cx="199.32" cy="104.14285714285714"></circle><circle class="dot" r="6.2" cx="199.408" cy="69.42857142857144"></circle><circle class="dot" r="3.1" cx="199.408" cy="189"></circle><circle class="dot" r="5.8" cx="199.584" cy="84.85714285714289"></circle><circle class="dot" r="4.3" cx="199.76000000000002" cy="142.71428571428575"></circle><circle class="dot" r="5.5" cx="199.848" cy="96.42857142857142"></circle><circle class="dot" r="3.5999999999999996" cx="199.93599999999998" cy="169.71428571428572"></circle><circle class="dot" r="4.699999999999999" cx="200.024" cy="127.2857142857143"></circle><circle class="dot" r="4.6000000000000005" cx="200.112" cy="131.14285714285717"></circle><circle class="dot" r="3.3000000000000003" cx="200.112" cy="181.2857142857143"></circle><circle class="dot" r="4.1" cx="200.20000000000002" cy="150.42857142857144"></circle><circle class="dot" r="4.1" cx="200.20000000000002" cy="150.42857142857144"></circle><circle class="dot" r="6.1" cx="200.288" cy="73.2857142857143"></circle><circle class="dot" r="5.8" cx="200.288" cy="84.85714285714289"></circle><circle class="dot" r="4.8" cx="200.376" cy="123.42857142857144"></circle><circle class="dot" r="6.5" cx="200.464" cy="57.85714285714286"></circle><circle class="dot" r="3.5999999999999996" cx="200.464" cy="169.71428571428572"></circle><circle class="dot" r="6.2" cx="200.552" cy="69.42857142857144"></circle><circle class="dot" r="3.5" cx="200.64000000000001" cy="173.5714285714286"></circle><circle class="dot" r="6.6000000000000005" cx="200.728" cy="54.00000000000003"></circle><circle class="dot" r="5.5" cx="200.728" cy="96.42857142857142"></circle><circle class="dot" r="5" cx="201.08" cy="115.71428571428572"></circle><circle class="dot" r="5.8" cx="201.168" cy="84.85714285714289"></circle><circle class="dot" r="7" cx="201.344" cy="38.57142857142861"></circle><circle class="dot" r="4.4" cx="201.51999999999998" cy="138.8571428571429"></circle><circle class="dot" r="5.2" cx="201.51999999999998" cy="108"></circle><circle class="dot" r="4.3" cx="201.608" cy="142.71428571428575"></circle><circle class="dot" r="4" cx="201.784" cy="154.28571428571428"></circle><circle class="dot" r="5.2" cx="201.784" cy="108"></circle><circle class="dot" r="4.699999999999999" cx="201.784" cy="127.2857142857143"></circle><circle class="dot" r="4.9" cx="201.784" cy="119.57142857142858"></circle><circle class="dot" r="4.4" cx="202.4" cy="138.8571428571429"></circle><circle class="dot" r="4.5" cx="202.66400000000002" cy="135.00000000000003"></circle><circle class="dot" r="6.4" cx="202.75199999999998" cy="61.71428571428572"></circle><circle class="dot" r="7.1" cx="202.75199999999998" cy="34.71428571428575"></circle><circle class="dot" r="5.4" cx="202.75199999999998" cy="100.28571428571428"></circle><circle class="dot" r="4.1" cx="202.928" cy="150.42857142857144"></circle><circle class="dot" r="4.699999999999999" cx="203.10399999999998" cy="127.2857142857143"></circle><circle class="dot" r="4.4" cx="203.192" cy="138.8571428571429"></circle><circle class="dot" r="3.5" cx="203.28" cy="173.5714285714286"></circle><circle class="dot" r="5.300000000000001" cx="203.28" cy="104.14285714285714"></circle><circle class="dot" r="4.5" cx="203.368" cy="135.00000000000003"></circle><circle class="dot" r="5.1" cx="203.45600000000002" cy="111.85714285714289"></circle><circle class="dot" r="4.699999999999999" cx="203.72" cy="127.2857142857143"></circle><circle class="dot" r="5.699999999999999" cx="203.89600000000002" cy="88.71428571428575"></circle><circle class="dot" r="5.5" cx="203.89600000000002" cy="96.42857142857142"></circle><circle class="dot" r="4.2" cx="203.89600000000002" cy="146.5714285714286"></circle><circle class="dot" r="4.4" cx="203.984" cy="138.8571428571429"></circle><circle class="dot" r="4.8" cx="203.984" cy="123.42857142857144"></circle><circle class="dot" r="4.3" cx="203.984" cy="142.71428571428575"></circle><circle class="dot" r="3.9000000000000004" cx="204.07200000000003" cy="158.14285714285717"></circle><circle class="dot" r="6" cx="204.07200000000003" cy="77.14285714285717"></circle><circle class="dot" r="4.8" cx="204.16" cy="123.42857142857144"></circle><circle class="dot" r="5.8" cx="204.16" cy="84.85714285714289"></circle><circle class="dot" r="5.8" cx="204.33599999999998" cy="84.85714285714289"></circle><circle class="dot" r="3" cx="204.33599999999998" cy="192.8571428571429"></circle><circle class="dot" r="5" cx="204.33599999999998" cy="115.71428571428572"></circle><circle class="dot" r="5.4" cx="204.424" cy="100.28571428571428"></circle><circle class="dot" r="3.2" cx="204.424" cy="185.14285714285717"></circle><circle class="dot" r="5.5" cx="204.424" cy="96.42857142857142"></circle><circle class="dot" r="4.4" cx="204.512" cy="138.8571428571429"></circle><circle class="dot" r="6.800000000000001" cx="204.68800000000002" cy="46.285714285714306"></circle><circle class="dot" r="3.7" cx="204.68800000000002" cy="165.85714285714286"></circle><circle class="dot" r="4.8" cx="204.864" cy="123.42857142857144"></circle><circle class="dot" r="4.8" cx="204.864" cy="123.42857142857144"></circle><circle class="dot" r="4.2" cx="204.864" cy="146.5714285714286"></circle><circle class="dot" r="5.4" cx="204.952" cy="100.28571428571428"></circle><circle class="dot" r="5.2" cx="205.04000000000002" cy="108"></circle><circle class="dot" r="6.1" cx="205.04000000000002" cy="73.2857142857143"></circle><circle class="dot" r="5.1" cx="205.216" cy="111.85714285714289"></circle><circle class="dot" r="6.2" cx="205.30399999999997" cy="69.42857142857144"></circle><circle class="dot" r="5.1" cx="205.392" cy="111.85714285714289"></circle><circle class="dot" r="2.4" cx="205.568" cy="216"></circle><circle class="dot" r="4" cx="205.656" cy="154.28571428571428"></circle><circle class="dot" r="6.2" cx="205.832" cy="69.42857142857144"></circle><circle class="dot" r="4.8" cx="206.008" cy="123.42857142857144"></circle><circle class="dot" r="3.7" cx="206.008" cy="165.85714285714286"></circle><circle class="dot" r="5.300000000000001" cx="206.096" cy="104.14285714285714"></circle><circle class="dot" r="3.1" cx="206.184" cy="189"></circle><circle class="dot" r="4.1" cx="206.184" cy="150.42857142857144"></circle><circle class="dot" r="5.5" cx="206.184" cy="96.42857142857142"></circle><circle class="dot" r="4.6000000000000005" cx="206.184" cy="131.14285714285717"></circle><circle class="dot" r="6.4" cx="206.35999999999999" cy="61.71428571428572"></circle><circle class="dot" r="5.1" cx="206.536" cy="111.85714285714289"></circle><circle class="dot" r="3" cx="206.624" cy="192.8571428571429"></circle><circle class="dot" r="4.2" cx="206.712" cy="146.5714285714286"></circle><circle class="dot" r="2.6" cx="206.712" cy="208.28571428571428"></circle><circle class="dot" r="4.5" cx="206.88800000000003" cy="135.00000000000003"></circle><circle class="dot" r="5.6000000000000005" cx="206.88800000000003" cy="92.57142857142858"></circle><circle class="dot" r="4.8" cx="206.976" cy="123.42857142857144"></circle><circle class="dot" r="3.8" cx="206.976" cy="162"></circle><circle class="dot" r="6.3" cx="207.06400000000002" cy="65.57142857142858"></circle><circle class="dot" r="3.7" cx="207.06400000000002" cy="165.85714285714286"></circle><circle class="dot" r="5.6000000000000005" cx="207.24" cy="92.57142857142858"></circle><circle class="dot" r="6.1" cx="207.24" cy="73.2857142857143"></circle><circle class="dot" r="5.5" cx="207.24" cy="96.42857142857142"></circle><circle class="dot" r="4.6000000000000005" cx="207.328" cy="131.14285714285717"></circle><circle class="dot" r="6.7" cx="207.504" cy="50.14285714285714"></circle><circle class="dot" r="2.8000000000000003" cx="207.59199999999998" cy="200.57142857142858"></circle><circle class="dot" r="4.5" cx="207.68" cy="135.00000000000003"></circle><circle class="dot" r="5.5" cx="207.768" cy="96.42857142857142"></circle><circle class="dot" r="5.699999999999999" cx="207.768" cy="88.71428571428575"></circle><circle class="dot" r="5.1" cx="207.768" cy="111.85714285714289"></circle><circle class="dot" r="6.1" cx="207.85600000000002" cy="73.2857142857143"></circle><circle class="dot" r="4.1" cx="207.944" cy="150.42857142857144"></circle><circle class="dot" r="6.3" cx="208.032" cy="65.57142857142858"></circle><circle class="dot" r="4.1" cx="208.208" cy="150.42857142857144"></circle><circle class="dot" r="4.1" cx="208.648" cy="150.42857142857144"></circle><circle class="dot" r="5.4" cx="208.824" cy="100.28571428571428"></circle><circle class="dot" r="3.8" cx="208.824" cy="162"></circle><circle class="dot" r="4.1" cx="208.912" cy="150.42857142857144"></circle><circle class="dot" r="3.7" cx="208.912" cy="165.85714285714286"></circle><circle class="dot" r="4.9" cx="209.08800000000002" cy="119.57142857142858"></circle><circle class="dot" r="4.2" cx="209.352" cy="146.5714285714286"></circle><circle class="dot" r="5.1" cx="209.44000000000003" cy="111.85714285714289"></circle><circle class="dot" r="5.1" cx="209.70399999999998" cy="111.85714285714289"></circle><circle class="dot" r="5.8999999999999995" cx="209.792" cy="81.00000000000003"></circle><circle class="dot" r="6.800000000000001" cx="209.792" cy="46.285714285714306"></circle><circle class="dot" r="4.699999999999999" cx="209.88000000000002" cy="127.2857142857143"></circle><circle class="dot" r="4.5" cx="209.88000000000002" cy="135.00000000000003"></circle><circle class="dot" r="3.9000000000000004" cx="209.88000000000002" cy="158.14285714285717"></circle><circle class="dot" r="5.2" cx="209.88000000000002" cy="108"></circle><circle class="dot" r="4.9" cx="209.88000000000002" cy="119.57142857142858"></circle><circle class="dot" r="5.8" cx="209.96800000000002" cy="84.85714285714289"></circle><circle class="dot" r="7" cx="209.96800000000002" cy="38.57142857142861"></circle><circle class="dot" r="5.8" cx="210.056" cy="84.85714285714289"></circle><circle class="dot" r="5.2" cx="210.056" cy="108"></circle><circle class="dot" r="4.8" cx="210.056" cy="123.42857142857144"></circle><circle class="dot" r="5.4" cx="210.056" cy="100.28571428571428"></circle><circle class="dot" r="4.9" cx="210.232" cy="119.57142857142858"></circle><circle class="dot" r="5.6000000000000005" cx="210.232" cy="92.57142857142858"></circle><circle class="dot" r="4.6000000000000005" cx="210.32" cy="131.14285714285717"></circle><circle class="dot" r="5.2" cx="210.584" cy="108"></circle><circle class="dot" r="6.2" cx="210.67200000000003" cy="69.42857142857144"></circle><circle class="dot" r="4.9" cx="210.76" cy="119.57142857142858"></circle><circle class="dot" r="6.3" cx="210.76" cy="65.57142857142858"></circle><circle class="dot" r="4.5" cx="210.936" cy="135.00000000000003"></circle><circle class="dot" r="3.9000000000000004" cx="210.936" cy="158.14285714285717"></circle><circle class="dot" r="6.5" cx="210.936" cy="57.85714285714286"></circle><circle class="dot" r="2.8000000000000003" cx="211.112" cy="200.57142857142858"></circle><circle class="dot" r="4.5" cx="211.2" cy="135.00000000000003"></circle><circle class="dot" r="5.2" cx="211.2" cy="108"></circle><circle class="dot" r="5.6000000000000005" cx="211.376" cy="92.57142857142858"></circle><circle class="dot" r="6.800000000000001" cx="211.552" cy="46.285714285714306"></circle><circle class="dot" r="4.1" cx="211.552" cy="150.42857142857144"></circle><circle class="dot" r="5.300000000000001" cx="211.64000000000001" cy="104.14285714285714"></circle><circle class="dot" r="3.1" cx="211.72799999999998" cy="189"></circle><circle class="dot" r="4.2" cx="211.72799999999998" cy="146.5714285714286"></circle><circle class="dot" r="5.5" cx="211.992" cy="96.42857142857142"></circle><circle class="dot" r="4.8" cx="211.992" cy="123.42857142857144"></circle><circle class="dot" r="5.6000000000000005" cx="212.08" cy="92.57142857142858"></circle><circle class="dot" r="6.1" cx="212.168" cy="73.2857142857143"></circle><circle class="dot" r="6.3" cx="212.168" cy="65.57142857142858"></circle><circle class="dot" r="5.8999999999999995" cx="212.25600000000003" cy="81.00000000000003"></circle><circle class="dot" r="4.699999999999999" cx="212.25600000000003" cy="127.2857142857143"></circle><circle class="dot" r="4.699999999999999" cx="212.344" cy="127.2857142857143"></circle><circle class="dot" r="5.6000000000000005" cx="212.43200000000002" cy="92.57142857142858"></circle><circle class="dot" r="5.5" cx="212.51999999999998" cy="96.42857142857142"></circle><circle class="dot" r="6.4" cx="212.78400000000002" cy="61.71428571428572"></circle><circle class="dot" r="7" cx="212.872" cy="38.57142857142861"></circle><circle class="dot" r="6" cx="212.95999999999998" cy="77.14285714285717"></circle><circle class="dot" r="6.800000000000001" cx="212.95999999999998" cy="46.285714285714306"></circle><circle class="dot" r="5.4" cx="213.048" cy="100.28571428571428"></circle><circle class="dot" r="4.4" cx="213.048" cy="138.8571428571429"></circle><circle class="dot" r="5.1" cx="213.048" cy="111.85714285714289"></circle><circle class="dot" r="6.6000000000000005" cx="213.136" cy="54.00000000000003"></circle><circle class="dot" r="3.7" cx="213.136" cy="165.85714285714286"></circle><circle class="dot" r="5.8" cx="213.22400000000002" cy="84.85714285714289"></circle><circle class="dot" r="4.699999999999999" cx="213.22400000000002" cy="127.2857142857143"></circle><circle class="dot" r="4.1" cx="213.31199999999998" cy="150.42857142857144"></circle><circle class="dot" r="7" cx="213.488" cy="38.57142857142861"></circle><circle class="dot" r="6.1" cx="213.488" cy="73.2857142857143"></circle><circle class="dot" r="4.5" cx="213.488" cy="135.00000000000003"></circle><circle class="dot" r="3.5999999999999996" cx="213.576" cy="169.71428571428572"></circle><circle class="dot" r="4.5" cx="213.576" cy="135.00000000000003"></circle><circle class="dot" r="6.3" cx="213.752" cy="65.57142857142858"></circle><circle class="dot" r="6.5" cx="213.752" cy="57.85714285714286"></circle><circle class="dot" r="3.9000000000000004" cx="213.84000000000003" cy="158.14285714285717"></circle><circle class="dot" r="5.300000000000001" cx="213.928" cy="104.14285714285714"></circle><circle class="dot" r="5.8999999999999995" cx="214.192" cy="81.00000000000003"></circle><circle class="dot" r="6" cx="214.28000000000003" cy="77.14285714285717"></circle><circle class="dot" r="5.2" cx="214.45600000000002" cy="108"></circle><circle class="dot" r="3.9000000000000004" cx="214.632" cy="158.14285714285717"></circle><circle class="dot" r="5.8" cx="214.632" cy="84.85714285714289"></circle><circle class="dot" r="3.9000000000000004" cx="214.632" cy="158.14285714285717"></circle><circle class="dot" r="6.7" cx="214.80800000000002" cy="50.14285714285714"></circle><circle class="dot" r="7.3" cx="214.80800000000002" cy="27.00000000000003"></circle><circle class="dot" r="5.2" cx="214.89600000000002" cy="108"></circle><circle class="dot" r="4.5" cx="214.98399999999998" cy="135.00000000000003"></circle><circle class="dot" r="4.9" cx="214.98399999999998" cy="119.57142857142858"></circle><circle class="dot" r="6.2" cx="214.98399999999998" cy="69.42857142857144"></circle><circle class="dot" r="5.2" cx="215.16" cy="108"></circle><circle class="dot" r="4.5" cx="215.51199999999997" cy="135.00000000000003"></circle><circle class="dot" r="4.4" cx="215.6" cy="138.8571428571429"></circle><circle class="dot" r="5.6000000000000005" cx="215.776" cy="92.57142857142858"></circle><circle class="dot" r="2.3000000000000003" cx="215.864" cy="219.85714285714286"></circle><circle class="dot" r="4.5" cx="215.952" cy="135.00000000000003"></circle><circle class="dot" r="4.699999999999999" cx="216.04000000000002" cy="127.2857142857143"></circle><circle class="dot" r="5.2" cx="216.04000000000002" cy="108"></circle><circle class="dot" r="4.1" cx="216.216" cy="150.42857142857144"></circle><circle class="dot" r="7.3" cx="216.304" cy="27.00000000000003"></circle><circle class="dot" r="6" cx="216.392" cy="77.14285714285717"></circle><circle class="dot" r="5.300000000000001" cx="216.392" cy="104.14285714285714"></circle><circle class="dot" r="5.699999999999999" cx="216.48000000000002" cy="88.71428571428575"></circle><circle class="dot" r="5.5" cx="216.568" cy="96.42857142857142"></circle><circle class="dot" r="2.9" cx="216.744" cy="196.71428571428572"></circle><circle class="dot" r="4.6000000000000005" cx="216.744" cy="131.14285714285717"></circle><circle class="dot" r="4.699999999999999" cx="216.832" cy="127.2857142857143"></circle><circle class="dot" r="4.9" cx="216.832" cy="119.57142857142858"></circle><circle class="dot" r="4.699999999999999" cx="216.92" cy="127.2857142857143"></circle><circle class="dot" r="3.5999999999999996" cx="216.92" cy="169.71428571428572"></circle><circle class="dot" r="5.300000000000001" cx="217.448" cy="104.14285714285714"></circle><circle class="dot" r="6.2" cx="217.536" cy="69.42857142857144"></circle><circle class="dot" r="4.6000000000000005" cx="217.62400000000002" cy="131.14285714285717"></circle><circle class="dot" r="2.9" cx="217.8" cy="196.71428571428572"></circle><circle class="dot" r="6" cx="217.888" cy="77.14285714285717"></circle><circle class="dot" r="4" cx="217.976" cy="154.28571428571428"></circle><circle class="dot" r="4.8" cx="217.976" cy="123.42857142857144"></circle><circle class="dot" r="4.4" cx="217.976" cy="138.8571428571429"></circle><circle class="dot" r="4.8" cx="218.06400000000002" cy="123.42857142857144"></circle><circle class="dot" r="5.300000000000001" cx="218.06400000000002" cy="104.14285714285714"></circle><circle class="dot" r="3.9000000000000004" cx="218.15200000000002" cy="158.14285714285717"></circle><circle class="dot" r="6.2" cx="218.24" cy="69.42857142857144"></circle><circle class="dot" r="4" cx="218.24" cy="154.28571428571428"></circle><circle class="dot" r="3.4000000000000004" cx="218.32799999999997" cy="177.42857142857144"></circle><circle class="dot" r="5.8999999999999995" cx="218.416" cy="81.00000000000003"></circle><circle class="dot" r="5.300000000000001" cx="218.416" cy="104.14285714285714"></circle><circle class="dot" r="4.9" cx="218.504" cy="119.57142857142858"></circle><circle class="dot" r="4.9" cx="218.592" cy="119.57142857142858"></circle><circle class="dot" r="4.699999999999999" cx="218.592" cy="127.2857142857143"></circle><circle class="dot" r="6" cx="218.68000000000004" cy="77.14285714285717"></circle><circle class="dot" r="4.3" cx="218.768" cy="142.71428571428575"></circle><circle class="dot" r="4.699999999999999" cx="218.768" cy="127.2857142857143"></circle><circle class="dot" r="4" cx="218.768" cy="154.28571428571428"></circle><circle class="dot" r="4.4" cx="218.944" cy="138.8571428571429"></circle><circle class="dot" r="7.199999999999999" cx="218.944" cy="30.85714285714289"></circle><circle class="dot" r="5" cx="219.12" cy="115.71428571428572"></circle><circle class="dot" r="6.1" cx="219.12" cy="73.2857142857143"></circle><circle class="dot" r="5.699999999999999" cx="219.29600000000002" cy="88.71428571428575"></circle><circle class="dot" r="5.5" cx="219.384" cy="96.42857142857142"></circle><circle class="dot" r="5.300000000000001" cx="219.384" cy="104.14285714285714"></circle><circle class="dot" r="6.800000000000001" cx="219.472" cy="46.285714285714306"></circle><circle class="dot" r="4.699999999999999" cx="219.472" cy="127.2857142857143"></circle><circle class="dot" r="4.699999999999999" cx="219.64800000000002" cy="127.2857142857143"></circle><circle class="dot" r="5.6000000000000005" cx="219.64800000000002" cy="92.57142857142858"></circle><circle class="dot" r="6.1" cx="219.73600000000002" cy="73.2857142857143"></circle><circle class="dot" r="5.300000000000001" cx="219.73600000000002" cy="104.14285714285714"></circle><circle class="dot" r="4.1" cx="219.824" cy="150.42857142857144"></circle><circle class="dot" r="4.3" cx="219.824" cy="142.71428571428575"></circle><circle class="dot" r="4.699999999999999" cx="220" cy="127.2857142857143"></circle><circle class="dot" r="4.2" cx="220.08800000000005" cy="146.5714285714286"></circle><circle class="dot" r="4.2" cx="220.528" cy="146.5714285714286"></circle><circle class="dot" r="5.2" cx="220.70399999999998" cy="108"></circle><circle class="dot" r="6.6000000000000005" cx="220.70399999999998" cy="54.00000000000003"></circle><circle class="dot" r="4" cx="220.792" cy="154.28571428571428"></circle><circle class="dot" r="6.7" cx="220.88" cy="50.14285714285714"></circle><circle class="dot" r="4.5" cx="220.88" cy="135.00000000000003"></circle><circle class="dot" r="3.5" cx="221.05600000000004" cy="173.5714285714286"></circle><circle class="dot" r="5.5" cx="221.14399999999998" cy="96.42857142857142"></circle><circle class="dot" r="6.1" cx="221.232" cy="73.2857142857143"></circle><circle class="dot" r="4" cx="221.32" cy="154.28571428571428"></circle><circle class="dot" r="5.699999999999999" cx="221.32" cy="88.71428571428575"></circle><circle class="dot" r="4.4" cx="221.32" cy="138.8571428571429"></circle><circle class="dot" r="3.5" cx="221.49600000000004" cy="173.5714285714286"></circle><circle class="dot" r="5" cx="221.58400000000003" cy="115.71428571428572"></circle><circle class="dot" r="5.699999999999999" cx="221.76" cy="88.71428571428575"></circle><circle class="dot" r="5.8999999999999995" cx="221.84799999999998" cy="81.00000000000003"></circle><circle class="dot" r="5.300000000000001" cx="221.84799999999998" cy="104.14285714285714"></circle><circle class="dot" r="5.6000000000000005" cx="221.93599999999998" cy="92.57142857142858"></circle><circle class="dot" r="3.9000000000000004" cx="222.02400000000003" cy="158.14285714285717"></circle><circle class="dot" r="7.6" cx="222.02400000000003" cy="15.428571428571473"></circle><circle class="dot" r="5.1" cx="222.11200000000002" cy="111.85714285714289"></circle><circle class="dot" r="3.8" cx="222.11200000000002" cy="162"></circle><circle class="dot" r="4" cx="222.11200000000002" cy="154.28571428571428"></circle><circle class="dot" r="4.4" cx="222.28800000000004" cy="138.8571428571429"></circle><circle class="dot" r="5.5" cx="222.46400000000003" cy="96.42857142857142"></circle><circle class="dot" r="4.5" cx="222.46400000000003" cy="135.00000000000003"></circle><circle class="dot" r="5.8999999999999995" cx="222.46400000000003" cy="81.00000000000003"></circle><circle class="dot" r="2.7" cx="222.46400000000003" cy="204.42857142857144"></circle><circle class="dot" r="4.4" cx="222.55200000000002" cy="138.8571428571429"></circle><circle class="dot" r="6.5" cx="222.64000000000001" cy="57.85714285714286"></circle><circle class="dot" r="4.6000000000000005" cx="222.64000000000001" cy="131.14285714285717"></circle><circle class="dot" r="7.3" cx="222.72799999999998" cy="27.00000000000003"></circle><circle class="dot" r="5.4" cx="222.90399999999997" cy="100.28571428571428"></circle><circle class="dot" r="4" cx="222.90399999999997" cy="154.28571428571428"></circle><circle class="dot" r="5.2" cx="222.99200000000002" cy="108"></circle><circle class="dot" r="5.4" cx="223.08" cy="100.28571428571428"></circle><circle class="dot" r="4.8" cx="223.08" cy="123.42857142857144"></circle><circle class="dot" r="5" cx="223.25600000000003" cy="115.71428571428572"></circle><circle class="dot" r="4.3" cx="223.34399999999997" cy="142.71428571428575"></circle><circle class="dot" r="5.8999999999999995" cx="223.34399999999997" cy="81.00000000000003"></circle><circle class="dot" r="4.699999999999999" cx="223.34399999999997" cy="127.2857142857143"></circle><circle class="dot" r="6" cx="223.43200000000002" cy="77.14285714285717"></circle><circle class="dot" r="6.2" cx="223.52" cy="69.42857142857144"></circle><circle class="dot" r="4.4" cx="223.52" cy="138.8571428571429"></circle><circle class="dot" r="3" cx="223.52" cy="192.8571428571429"></circle><circle class="dot" r="3.8" cx="223.52" cy="162"></circle><circle class="dot" r="4.2" cx="223.608" cy="146.5714285714286"></circle><circle class="dot" r="4.6000000000000005" cx="223.69600000000003" cy="131.14285714285717"></circle><circle class="dot" r="5.8" cx="223.69600000000003" cy="84.85714285714289"></circle><circle class="dot" r="5.8999999999999995" cx="223.78400000000002" cy="81.00000000000003"></circle><circle class="dot" r="3.8" cx="223.78400000000002" cy="162"></circle><circle class="dot" r="5.8999999999999995" cx="223.96" cy="81.00000000000003"></circle><circle class="dot" r="5.1" cx="224.048" cy="111.85714285714289"></circle><circle class="dot" r="5.1" cx="224.048" cy="111.85714285714289"></circle><circle class="dot" r="4.699999999999999" cx="224.048" cy="127.2857142857143"></circle><circle class="dot" r="4.699999999999999" cx="224.136" cy="127.2857142857143"></circle><circle class="dot" r="4.699999999999999" cx="224.22400000000002" cy="127.2857142857143"></circle><circle class="dot" r="3.5" cx="224.22400000000002" cy="173.5714285714286"></circle><circle class="dot" r="5.699999999999999" cx="224.488" cy="88.71428571428575"></circle><circle class="dot" r="5.6000000000000005" cx="224.488" cy="92.57142857142858"></circle><circle class="dot" r="5.5" cx="224.66400000000002" cy="96.42857142857142"></circle><circle class="dot" r="4" cx="224.928" cy="154.28571428571428"></circle><circle class="dot" r="5.5" cx="225.016" cy="96.42857142857142"></circle><circle class="dot" r="4" cx="225.192" cy="154.28571428571428"></circle><circle class="dot" r="4.4" cx="225.368" cy="138.8571428571429"></circle><circle class="dot" r="4.8" cx="225.368" cy="123.42857142857144"></circle><circle class="dot" r="4.3" cx="225.368" cy="142.71428571428575"></circle><circle class="dot" r="4.4" cx="225.368" cy="138.8571428571429"></circle><circle class="dot" r="4.1" cx="225.45600000000005" cy="150.42857142857144"></circle><circle class="dot" r="4.6000000000000005" cx="225.54399999999998" cy="131.14285714285717"></circle><circle class="dot" r="4.3" cx="225.54399999999998" cy="142.71428571428575"></circle><circle class="dot" r="5.1" cx="225.54399999999998" cy="111.85714285714289"></circle><circle class="dot" r="4.8" cx="225.632" cy="123.42857142857144"></circle><circle class="dot" r="5" cx="225.72" cy="115.71428571428572"></circle><circle class="dot" r="3.5" cx="225.808" cy="173.5714285714286"></circle><circle class="dot" r="6.8999999999999995" cx="225.808" cy="42.428571428571445"></circle><circle class="dot" r="6.1" cx="225.89600000000004" cy="73.2857142857143"></circle><circle class="dot" r="3.7" cx="225.98400000000004" cy="165.85714285714286"></circle><circle class="dot" r="5.1" cx="226.072" cy="111.85714285714289"></circle><circle class="dot" r="3.3000000000000003" cx="226.072" cy="181.2857142857143"></circle><circle class="dot" r="3.3000000000000003" cx="226.16" cy="181.2857142857143"></circle><circle class="dot" r="6.3" cx="226.16" cy="65.57142857142858"></circle><circle class="dot" r="4" cx="226.248" cy="154.28571428571428"></circle><circle class="dot" r="4.2" cx="226.51199999999997" cy="146.5714285714286"></circle><circle class="dot" r="4.8" cx="226.6" cy="123.42857142857144"></circle><circle class="dot" r="5.699999999999999" cx="226.688" cy="88.71428571428575"></circle><circle class="dot" r="4.9" cx="226.77599999999998" cy="119.57142857142858"></circle><circle class="dot" r="3.5" cx="226.86400000000003" cy="173.5714285714286"></circle><circle class="dot" r="6.8999999999999995" cx="226.95200000000003" cy="42.428571428571445"></circle><circle class="dot" r="5.5" cx="227.04000000000002" cy="96.42857142857142"></circle><circle class="dot" r="5" cx="227.39200000000002" cy="115.71428571428572"></circle><circle class="dot" r="4.699999999999999" cx="227.56799999999998" cy="127.2857142857143"></circle><circle class="dot" r="3.5999999999999996" cx="228.008" cy="169.71428571428572"></circle><circle class="dot" r="6" cx="228.008" cy="77.14285714285717"></circle><circle class="dot" r="4.4" cx="228.36" cy="138.8571428571429"></circle><circle class="dot" r="6.3" cx="228.536" cy="65.57142857142858"></circle><circle class="dot" r="5.2" cx="228.536" cy="108"></circle><circle class="dot" r="6.8999999999999995" cx="228.62400000000002" cy="42.428571428571445"></circle><circle class="dot" r="5.300000000000001" cx="228.71199999999996" cy="104.14285714285714"></circle><circle class="dot" r="6.4" cx="228.71199999999996" cy="61.71428571428572"></circle><circle class="dot" r="5.2" cx="228.71199999999996" cy="108"></circle><circle class="dot" r="4.8" cx="228.8" cy="123.42857142857144"></circle><circle class="dot" r="6.1" cx="229.328" cy="73.2857142857143"></circle><circle class="dot" r="4.1" cx="229.592" cy="150.42857142857144"></circle><circle class="dot" r="4.3" cx="229.768" cy="142.71428571428575"></circle><circle class="dot" r="5" cx="230.032" cy="115.71428571428572"></circle><circle class="dot" r="6.5" cx="230.384" cy="57.85714285714286"></circle><circle class="dot" r="5.2" cx="230.384" cy="108"></circle><circle class="dot" r="4.3" cx="230.472" cy="142.71428571428575"></circle><circle class="dot" r="4.8" cx="230.472" cy="123.42857142857144"></circle><circle class="dot" r="4" cx="230.736" cy="154.28571428571428"></circle><circle class="dot" r="4.699999999999999" cx="231" cy="127.2857142857143"></circle><circle class="dot" r="3.2" cx="231" cy="185.14285714285717"></circle><circle class="dot" r="5" cx="231.088" cy="115.71428571428572"></circle><circle class="dot" r="6.8999999999999995" cx="231.088" cy="42.428571428571445"></circle><circle class="dot" r="4.8" cx="231.176" cy="123.42857142857144"></circle><circle class="dot" r="4.4" cx="231.176" cy="138.8571428571429"></circle><circle class="dot" r="7.6" cx="231.35200000000003" cy="15.428571428571473"></circle><circle class="dot" r="5.699999999999999" cx="231.35200000000003" cy="88.71428571428575"></circle><circle class="dot" r="5.2" cx="231.44" cy="108"></circle><circle class="dot" r="6.5" cx="231.528" cy="57.85714285714286"></circle><circle class="dot" r="4" cx="231.528" cy="154.28571428571428"></circle><circle class="dot" r="4.2" cx="231.61599999999999" cy="146.5714285714286"></circle><circle class="dot" r="5.5" cx="231.79200000000003" cy="96.42857142857142"></circle><circle class="dot" r="4.2" cx="231.88000000000002" cy="146.5714285714286"></circle><circle class="dot" r="5" cx="231.968" cy="115.71428571428572"></circle><circle class="dot" r="5" cx="232.05599999999998" cy="115.71428571428572"></circle><circle class="dot" r="6.3" cx="232.14399999999998" cy="65.57142857142858"></circle><circle class="dot" r="6.6000000000000005" cx="232.14399999999998" cy="54.00000000000003"></circle><circle class="dot" r="5.2" cx="232.23200000000003" cy="108"></circle><circle class="dot" r="4.6000000000000005" cx="232.23200000000003" cy="131.14285714285717"></circle><circle class="dot" r="6" cx="232.40800000000002" cy="77.14285714285717"></circle><circle class="dot" r="4" cx="232.67200000000003" cy="154.28571428571428"></circle><circle class="dot" r="5.8" cx="232.76000000000002" cy="84.85714285714289"></circle><circle class="dot" r="6.3" cx="232.76000000000002" cy="65.57142857142858"></circle><circle class="dot" r="6" cx="232.93599999999998" cy="77.14285714285717"></circle><circle class="dot" r="3.5999999999999996" cx="233.11199999999997" cy="169.71428571428572"></circle><circle class="dot" r="6.7" cx="233.20000000000002" cy="50.14285714285714"></circle><circle class="dot" r="4.4" cx="233.376" cy="138.8571428571429"></circle><circle class="dot" r="7.1" cx="233.99200000000002" cy="34.71428571428575"></circle><circle class="dot" r="5.300000000000001" cx="233.99200000000002" cy="104.14285714285714"></circle><circle class="dot" r="6.5" cx="234.08" cy="57.85714285714286"></circle><circle class="dot" r="5.1" cx="234.08" cy="111.85714285714289"></circle><circle class="dot" r="6" cx="234.168" cy="77.14285714285717"></circle><circle class="dot" r="3.5999999999999996" cx="234.168" cy="169.71428571428572"></circle><circle class="dot" r="5.6000000000000005" cx="234.344" cy="92.57142857142858"></circle><circle class="dot" r="4.5" cx="234.344" cy="135.00000000000003"></circle><circle class="dot" r="4.9" cx="234.344" cy="119.57142857142858"></circle><circle class="dot" r="4.8" cx="234.43200000000002" cy="123.42857142857144"></circle><circle class="dot" r="6" cx="234.52" cy="77.14285714285717"></circle><circle class="dot" r="3.7" cx="234.69600000000005" cy="165.85714285714286"></circle><circle class="dot" r="2.7" cx="234.69600000000005" cy="204.42857142857144"></circle><circle class="dot" r="7.4" cx="234.69600000000005" cy="23.142857142857167"></circle><circle class="dot" r="5.6000000000000005" cx="235.22400000000005" cy="92.57142857142858"></circle><circle class="dot" r="3.1" cx="235.31199999999998" cy="189"></circle><circle class="dot" r="5.8999999999999995" cx="235.4" cy="81.00000000000003"></circle><circle class="dot" r="4.699999999999999" cx="235.66400000000004" cy="127.2857142857143"></circle><circle class="dot" r="3.2" cx="235.66400000000004" cy="185.14285714285717"></circle><circle class="dot" r="4.6000000000000005" cx="235.66400000000004" cy="131.14285714285717"></circle><circle class="dot" r="3.5" cx="235.75199999999998" cy="173.5714285714286"></circle><circle class="dot" r="5.300000000000001" cx="235.75199999999998" cy="104.14285714285714"></circle><circle class="dot" r="5.4" cx="235.84" cy="100.28571428571428"></circle><circle class="dot" r="5.2" cx="236.10399999999998" cy="108"></circle><circle class="dot" r="3.7" cx="236.456" cy="165.85714285714286"></circle><circle class="dot" r="4.6000000000000005" cx="236.456" cy="131.14285714285717"></circle><circle class="dot" r="4.8" cx="236.89600000000004" cy="123.42857142857144"></circle><circle class="dot" r="5.6000000000000005" cx="237.07200000000003" cy="92.57142857142858"></circle><circle class="dot" r="4.6000000000000005" cx="237.16000000000003" cy="131.14285714285717"></circle><circle class="dot" r="6.2" cx="237.60000000000002" cy="69.42857142857144"></circle><circle class="dot" r="5.1" cx="237.68800000000002" cy="111.85714285714289"></circle><circle class="dot" r="3.9000000000000004" cx="238.216" cy="158.14285714285717"></circle><circle class="dot" r="5.300000000000001" cx="238.30399999999997" cy="104.14285714285714"></circle><circle class="dot" r="5.699999999999999" cx="238.30399999999997" cy="88.71428571428575"></circle><circle class="dot" r="6" cx="238.30399999999997" cy="77.14285714285717"></circle><circle class="dot" r="6.4" cx="238.83200000000002" cy="61.71428571428572"></circle><circle class="dot" r="5" cx="238.92000000000002" cy="115.71428571428572"></circle><circle class="dot" r="5.1" cx="239.096" cy="111.85714285714289"></circle><circle class="dot" r="4.4" cx="239.096" cy="138.8571428571429"></circle><circle class="dot" r="5.300000000000001" cx="239.27200000000002" cy="104.14285714285714"></circle><circle class="dot" r="4.4" cx="239.36" cy="138.8571428571429"></circle><circle class="dot" r="4.3" cx="239.36" cy="142.71428571428575"></circle><circle class="dot" r="4.5" cx="239.36" cy="135.00000000000003"></circle><circle class="dot" r="6.6000000000000005" cx="239.448" cy="54.00000000000003"></circle><circle class="dot" r="5.6000000000000005" cx="239.976" cy="92.57142857142858"></circle><circle class="dot" r="4.3" cx="240.328" cy="142.71428571428575"></circle><circle class="dot" r="3.2" cx="240.328" cy="185.14285714285717"></circle><circle class="dot" r="4.9" cx="240.59200000000004" cy="119.57142857142858"></circle><circle class="dot" r="6" cx="240.856" cy="77.14285714285717"></circle><circle class="dot" r="5.5" cx="240.856" cy="96.42857142857142"></circle><circle class="dot" r="5" cx="241.296" cy="115.71428571428572"></circle><circle class="dot" r="6.7" cx="241.47200000000004" cy="50.14285714285714"></circle><circle class="dot" r="4.4" cx="241.56000000000003" cy="138.8571428571429"></circle><circle class="dot" r="6.4" cx="242.08800000000002" cy="61.71428571428572"></circle><circle class="dot" r="4.8" cx="242.52800000000002" cy="123.42857142857144"></circle><circle class="dot" r="6.6000000000000005" cx="242.616" cy="54.00000000000003"></circle><circle class="dot" r="4" cx="242.70399999999998" cy="154.28571428571428"></circle><circle class="dot" r="6.2" cx="242.70399999999998" cy="69.42857142857144"></circle><circle class="dot" r="4.6000000000000005" cx="242.79199999999997" cy="131.14285714285717"></circle><circle class="dot" r="6.7" cx="243.056" cy="50.14285714285714"></circle><circle class="dot" r="3.8" cx="243.31999999999996" cy="162"></circle><circle class="dot" r="7.6" cx="244.024" cy="15.428571428571473"></circle><circle class="dot" r="5" cx="244.288" cy="115.71428571428572"></circle><circle class="dot" r="5.699999999999999" cx="244.376" cy="88.71428571428575"></circle><circle class="dot" r="5" cx="244.816" cy="115.71428571428572"></circle><circle class="dot" r="4.1" cx="244.992" cy="150.42857142857144"></circle><circle class="dot" r="5.4" cx="245.08" cy="100.28571428571428"></circle><circle class="dot" r="4.1" cx="245.696" cy="150.42857142857144"></circle><circle class="dot" r="6.1" cx="245.696" cy="73.2857142857143"></circle><circle class="dot" r="6.6000000000000005" cx="246.31199999999998" cy="54.00000000000003"></circle><circle class="dot" r="2.3000000000000003" cx="246.488" cy="219.85714285714286"></circle><circle class="dot" r="4.9" cx="247.016" cy="119.57142857142858"></circle><circle class="dot" r="4.3" cx="247.45600000000002" cy="142.71428571428575"></circle><circle class="dot" r="5.1" cx="247.54399999999998" cy="111.85714285714289"></circle><circle class="dot" r="4.699999999999999" cx="248.512" cy="127.2857142857143"></circle><circle class="dot" r="3.9000000000000004" cx="248.864" cy="158.14285714285717"></circle><circle class="dot" r="5.8" cx="249.216" cy="84.85714285714289"></circle><circle class="dot" r="4" cx="249.216" cy="154.28571428571428"></circle><circle class="dot" r="4.9" cx="249.216" cy="119.57142857142858"></circle><circle class="dot" r="5.1" cx="249.656" cy="111.85714285714289"></circle><circle class="dot" r="7.199999999999999" cx="250.536" cy="30.85714285714289"></circle><circle class="dot" r="6.3" cx="250.80000000000004" cy="65.57142857142858"></circle><circle class="dot" r="5.4" cx="251.32800000000003" cy="100.28571428571428"></circle><circle class="dot" r="4.9" cx="251.416" cy="119.57142857142858"></circle><circle class="dot" r="5.300000000000001" cx="254.056" cy="104.14285714285714"></circle><circle class="dot" r="4.4" cx="254.056" cy="138.8571428571429"></circle><circle class="dot" r="3" cx="254.056" cy="192.8571428571429"></circle><circle class="dot" r="3.5999999999999996" cx="254.232" cy="169.71428571428572"></circle><circle class="dot" r="5.300000000000001" cx="254.496" cy="104.14285714285714"></circle><circle class="dot" r="3.8" cx="255.2" cy="162"></circle><circle class="dot" r="4.699999999999999" cx="255.376" cy="127.2857142857143"></circle><circle class="dot" r="5.4" cx="256.432" cy="100.28571428571428"></circle><circle class="dot" r="3.4000000000000004" cx="256.608" cy="177.42857142857144"></circle><circle class="dot" r="4.6000000000000005" cx="256.784" cy="131.14285714285717"></circle><circle class="dot" r="6.8999999999999995" cx="256.96" cy="42.428571428571445"></circle><circle class="dot" r="5.699999999999999" cx="257.4" cy="88.71428571428575"></circle><circle class="dot" r="3.5999999999999996" cx="257.488" cy="169.71428571428572"></circle><circle class="dot" r="3.8" cx="260.128" cy="162"></circle><circle class="dot" r="4.699999999999999" cx="260.30400000000003" cy="127.2857142857143"></circle><circle class="dot" r="4.6000000000000005" cx="262.944" cy="131.14285714285717"></circle><circle class="dot" r="4.8" cx="263.73600000000005" cy="123.42857142857144"></circle><circle class="dot" r="5.1" cx="264.44" cy="111.85714285714289"></circle><circle class="dot" r="5.5" cx="264.52799999999996" cy="96.42857142857142"></circle><circle class="dot" r="3.9000000000000004" cx="265.32" cy="158.14285714285717"></circle><circle class="dot" r="4" cx="267.168" cy="154.28571428571428"></circle><circle class="dot" r="4.8" cx="267.696" cy="123.42857142857144"></circle><circle class="dot" r="4.9" cx="267.784" cy="119.57142857142858"></circle><circle class="dot" r="5.300000000000001" cx="267.96" cy="104.14285714285714"></circle><circle class="dot" r="3.9000000000000004" cx="269.10400000000004" cy="158.14285714285717"></circle><circle class="dot" r="4" cx="270.15999999999997" cy="154.28571428571428"></circle><circle class="dot" r="3.9000000000000004" cx="271.656" cy="158.14285714285717"></circle><circle class="dot" r="3.9000000000000004" cx="274.56" cy="158.14285714285717"></circle><circle class="dot" r="5.5" cx="277.81600000000003" cy="96.42857142857142"></circle><circle class="dot" r="4.8" cx="283.62399999999997" cy="123.42857142857144"></circle><circle class="dot" r="6.1" cx="284.59200000000004" cy="73.2857142857143"></circle><circle class="dot" r="5.1" cx="290.75199999999995" cy="111.85714285714289"></circle><circle class="dot" r="4.699999999999999" cx="292.248" cy="127.2857142857143"></circle><circle class="dot" r="5.1" cx="294.536" cy="111.85714285714289"></circle><circle class="dot" r="5.8" cx="295.944" cy="84.85714285714289"></circle><circle class="dot" r="4.5" cx="302.71999999999997" cy="135.00000000000003"></circle><circle class="dot" r="3.3000000000000003" cx="303.424" cy="181.2857142857143"></circle><circle class="dot" r="2.7" cx="305.18399999999997" cy="204.42857142857144"></circle><circle class="dot" r="5.2" cx="306.32800000000003" cy="108"></circle><circle class="dot" r="4" cx="307.91200000000003" cy="154.28571428571428"></circle><circle class="dot" r="3" cx="320.49600000000004" cy="192.8571428571429"></circle><circle class="dot" r="2.3000000000000003" cx="328.24" cy="219.85714285714286"></circle><circle class="dot" r="4" cx="338.184" cy="154.28571428571428"></circle><circle class="dot" r="3" cx="354.288" cy="192.8571428571429"></circle></g></svg>