<svg width="1140" height="600" class="line"><style type="text/css"><![CDATA[.axis path,.axis line {fill: none;stroke: #000;shape-rendering: crispEdges;}.line,.sparkLine {fill: none;stroke: steelblue;stroke-weight:1.5px;}]]></style><path class="M1140,460.0484261501211C1140,460.04842615012103,1140,460.04842615012103,1126.2344732023557,437.04600484261505C1112.4689464047112,414.04358353510895,1084.9378928094225,368.03874092009687,1057.8675706438362,314.36642453591605C1030.79724847825,260.6941081517353,1004.1876577423664,199.3543179983858,976.8916712030483,145.68200161420498C949.5956846637303,92.00968523002419,921.6133023209777,46.004842615012095,893.8471816697183,38.337368845843415C866.0810610184589,30.669895076674738,838.5312020586925,61.339790153349476,810.990745781165,103.51089588377724C783.4502895036374,145.682001614205,755.9192359083486,199.35431799838582,728.3881823130598,249.19289749798224C700.857128717771,299.0314769975787,673.3260751224823,345.03631961259083,645.7950215271935,391.0411622276029C618.2639679319047,437.04600484261505,590.732914336616,483.0508474576271,563.6625921710298,486.19451170298623C536.5922700054437,489.33817594834545,509.98267926956,449.6206618240517,496.4522195278863,430.45197740112997C482.92175978621265,411.28329297820824,482.4704310387489,412.66343825665854,482.0191022912852,413.775221953188C481.56777354382143,414.8870056497175,481.11644479635765,415.73042776432607,480.6651160488939,416.19047619047626C480.2137873014301,416.65052461662634,479.7624585539664,416.72719935431803,478.634136685307,416.45883777239715C477.50581481664767,416.1904761904762,475.7004998267927,415.5770782889427,474.57217795813324,417.2639225181598C473.4438560894739,418.95076674737686,472.99252734201013,422.9378531073446,472.5411985945464,423.5895883777239C472.0898698470827,424.2413236481033,471.6385410996189,421.5577078288942,471.18721235215514,420.71428571428567C470.7358836046914,419.87086359967714,470.2845548572277,420.86763518966904,469.8332261097639,421.48103309120256C469.38189736230015,422.0944309927361,468.9305686148364,422.3244552058111,468.0279111199089,421.5960451977401C467.1252536249814,420.86763518966904,465.77126738259017,419.180790960452,464.86860988766267,420.2542372881355C463.9659523927352,421.3276836158192,463.5146236452714,425.16142050040355,463.0632948978076,423.12953995157386C462.6119661503439,421.0976594027441,462.1606374028802,413.20016142050036,461.7093086554164,413.8518966908797C461.2579799079527,414.50363196125903,460.8066511604889,423.70460048426145,460.3553224130252,431.5254237288135C459.9039936655614,439.34624697336557,459.45266491809764,445.78692493946727,458.5500074231701,448.50887812752217C457.64734992824265,451.23083131557706,456.29336368585143,450.23405972558515,455.39070619092394,446.78369652945923C454.48804869599644,443.33333333333337,454.03671994853266,437.4293785310735,453.58539120106894,437.46771589991937C453.13406245360517,437.5060532687652,452.68273370614145,443.48668280871675,452.2314049586777,445.0201775625505C451.7800762112139,446.5536723163842,451.3287474637501,443.64003228410013,450.87741871628634,441.45480225988706C450.42608996882257,439.269572235674,449.97476122135885,437.8127522195319,449.07210372643135,436.54761904761904C448.16944623150385,435.2824858757062,446.8154599891126,434.2090395480226,445.91280249418514,434.9757869249395C445.01014499925765,435.7425343018563,444.5588162517939,438.3494753833737,444.10748750433015,441.5314769975787C443.65615875686643,444.7134786117837,443.20483000940266,448.47054075867635,442.7535012619389,452.0359160613398C442.30217251447516,455.6012913640032,441.85084376701144,458.97497982243743,440.72252189835206,459.12832929782076C439.59420002969273,459.2816787732042,437.7888850398377,456.2146892655367,436.6605631711783,454.79620661824055C435.5322413025189,453.3777239709443,435.0809125550552,453.6077481840194,434.6295838075914,453.3777239709443C434.17825506012764,453.14769975786925,433.7269263126639,452.45762711864404,433.2755975652002,451.1541565778854C432.8242688177364,449.8506860371267,432.37294007027265,447.9338175948345,431.9216113228089,441.7615012106537C431.47028257534515,435.589184826473,431.0189538278814,425.16142050040355,430.1162963329538,419.37247780468124C429.2136388380263,413.58353510895887,427.8596525956351,412.4334140435835,426.9569951007077,411.589991928975C426.0543376057801,410.7465698143664,425.60300885831634,410.2098466505246,425.1516801108526,415.42372881355925C424.7003513633889,420.637610976594,424.2490226159251,431.6020984665052,423.79769386846135,436.8159806295399C423.34636512099763,442.02986279257465,422.8950363735339,441.4931396287329,422.44370762607014,440.2663438256659C421.99237887860636,439.0395480225989,421.5410501311426,437.12267958030674,420.6383926362151,434.4774011299435C419.7357351412876,431.8321226795803,418.3817488988964,428.4584342211461,417.4790914039689,432.0238095238096C416.5764339090414,435.589184826473,416.1251051615776,446.0936238902341,415.67377641411383,453.0710250201776C415.2224476666501,460.0484261501211,414.7711189191864,463.498789346247,414.0941257979908,468.4826472962066C413.4171326767952,473.4665052461662,412.5144751818677,479.9838579499596,411.3861533132083,483.16585956416463C410.2578314445489,486.3478611783696,408.90384520215764,486.19451170298623,408.00118770723014,486.271186440678C407.09853021230265,486.34786117836967,406.6472014648389,486.6545601291364,406.19587271737515,487.5746569814367C405.7445439699114,488.4947538337369,405.29321522244766,490.02824858757066,404.616222101252,491.5234059725586C403.9392289800564,493.01856335754644,403.0365714851289,494.47538337368843,401.9082496164695,493.0569007263922C400.7799277478101,491.638418079096,399.42594150541885,487.3446327683615,398.52328401049135,485.54277643260696C397.62062651556386,483.7409200968523,397.16929776810014,484.4309927360774,396.71796902063636,486.53954802259886C396.26664027317264,488.64810330912024,395.81531152570886,492.17514124293785,395.3639827782451,495.4338175948346C394.91265403078137,498.69249394673125,394.46132528331765,501.68280871670703,394.0099965358539,499.84261501210653C393.55866778839015,498.00242130750604,393.1073390409264,491.33171912832927,392.2046815459989,485.96448748991116C391.3020240510714,480.59725585149306,389.9480378086801,476.5334947538337,389.0453803137526,473.73486682808715C388.1427228188251,470.93623890234056,387.6913940713614,469.4027441485068,387.2400653238976,468.78934624697337C386.78873657643385,468.1759483454399,386.33740782897013,468.4826472962066,385.8860790815064,469.86279257465696C385.43475033404263,471.2429378531073,384.98342158657886,473.69652945924133,384.53209283911514,476.7635189669088C384.0807640916514,479.8305084745763,383.62943534418764,483.5108958837772,382.72677784926015,484.4693301049233C381.82412035433265,485.4277643260694,380.4701341119413,483.66424535916065,379.5674766170139,486.46287328490723C378.6648191220863,489.26150121065376,378.2134903746226,496.6222760290557,377.7621616271589,497.4273607748184C377.3108328796951,498.2324455205811,376.8595041322314,492.4818401937046,376.4081753847677,488.8014527845036C375.9568466373039,485.1210653753027,375.5055178898401,483.51089588377727,375.05418914237634,481.86238902340597C374.6028603949127,480.2138821630347,374.1515316474489,478.5270379338176,373.2488741525214,479.0637610976594C372.3462166575939,479.6004842615012,370.99223041520264,482.3607748184019,370.0895729202751,481.6707021791767C369.1869154253476,480.98062953995156,368.7355866778839,476.8401937046005,368.28425793042015,471.8946731234867C367.8329291829564,466.9491525423729,367.3816004354926,461.1985472154964,366.9302716880289,458.1698950766747C366.47894294056516,455.1412429378531,366.0276141931014,454.83454398708636,365.5762854456376,459.47336561743344C365.1249566981739,464.1121872477805,364.67362795071017,473.6965294592414,363.7709704557827,478.52703793381767C362.8683129608551,483.3575464083939,361.51432671846385,483.4342211460856,360.38600484980446,484.5076674737692C359.25768298114514,485.5811138014528,358.35502548621764,487.6513317191283,357.678032365022,488.30306698950767C357.00103924382637,488.954802259887,356.5497104963626,488.18805488297016,356.0983817488989,487.8430185633576C355.6470530014351,487.497982243745,355.1957242539714,487.57465698143665,354.2930667590439,493.2869249394673C353.3904092641164,498.999192897498,352.0364230217251,510.3470540758676,351.13376552679756,516.4426957223568C350.2311080318701,522.5383373688459,349.77977928440635,523.3817594834544,349.3284505369426,525.4903147699757C348.87712178947885,527.5988700564972,348.42579304201513,530.9725585149314,347.97446429455135,530.9725585149314C347.5231355470876,530.9725585149314,347.07180679962386,527.5988700564972,346.62047805216014,526.4487489911219C346.16914930469636,525.2986279257466,345.71782055723264,526.3720742534301,344.81516306230515,524.4168684422922C343.9125055673776,522.4616626311541,342.5585193249864,517.4778046811946,341.6558618300588,514.7941888619855C340.75320433513133,512.1105730427764,340.3018755876676,511.72719935431803,339.85054684020383,509.12025827280064C339.3992180927401,506.5133171912833,338.94788934527634,501.6828087167071,338.4965605978126,499.8426150121066C338.04523185034884,498.0024213075061,337.5939031028851,499.1525423728814,337.1425743554214,496.4305891848265C336.6912456079576,493.7086359967716,336.23991686049385,487.1146085552865,335.3278566833276,478.45036319612586C334.4157965061612,469.7861178369653,333.0430048992923,459.0516545601291,332.130944722126,440.18966908797415C331.2188845449597,421.3276836158192,330.7675557974959,394.33817594834545,330.3162270500321,380.57506053268764C329.8648983025684,366.81194511702984,329.4135695551047,366.275221953188,328.0595833127134,369.57223567393055C326.70559707032214,372.8692493946731,324.4489533330034,380,323.0949670906121,380.2683615819209C321.7409808482209,380.53672316384177,321.2896521007571,373.9426957223567,320.8383233532934,363.9749798224375C320.3869946058296,354.0072639225182,319.9356658583659,340.6658595641647,319.4843371109022,340.78087167070225C319.0330083634384,340.89588377723976,318.5816796159746,354.4673123486683,318.1303508685109,360.2179176755448C317.6790221210471,365.9685230024213,317.2276933735834,363.8983050847458,316.3250358786559,361.5597255851494C315.42237838372836,359.2211460855529,314.0683921413371,356.6142050040355,313.1657346464096,354.7356739305892C312.2630771514821,352.85714285714283,311.8117484040184,351.7070217917675,311.36041965655465,347.5282485875706C310.9090909090909,343.34947538337366,310.45776216162716,336.1420500403551,310.00643341416344,335.79701372074254C309.55510466669966,335.45197740112997,309.1037759192359,341.9693301049233,308.65244717177217,343.4644874899112C308.20111842430845,344.95964487489914,307.74978967684467,341.43260694108153,306.8471321819171,339.93744955609367C305.9444746869897,338.4422921711058,304.59048844459835,338.9790153349476,303.6878309496709,337.3688458434221C302.78517345474336,335.7586763518967,302.33384470727964,332.001614205004,301.8825159598159,330.5831315577078C301.43118721235214,329.1646489104116,300.97985846488837,330.08474576271186,300.52852971742465,323.5673930589185C300.07720096996087,317.05004035512513,299.62587222249715,303.09523809523813,299.1745434750334,292.89749798224375C298.72321472756965,282.6997578692494,298.2718859801059,276.2590799031477,297.3692284851784,272.5403551251009C296.4665709902509,268.8216303470541,295.1125847478596,267.8248587570622,294.2099272529321,265.4479418886199C293.3072697580046,263.0710250201776,292.85594101054085,259.31396287328494,292.4046122630771,260.50242130750604C291.9532835156134,261.6908797417272,291.50195476814963,267.82485875706215,291.0506260206859,272.80871670702174C290.59929727322213,277.7925746569814,290.1479685257584,281.62631154156577,289.69663977829464,282.8914447134786C289.24531103083086,284.15657788539147,288.79398228336714,282.85310734463275,287.89132478843965,284.9233252623083C286.98866729351215,286.9935431799838,285.6346810511209,292.4374495560936,284.7320235561934,298.2647296206618C283.8293660612659,304.09200968523004,283.3780373138021,310.3026634382567,282.92670856633833,315.55488297013727C282.4753798188746,320.80710250201776,282.0240510714109,325.10088781275226,281.5727223239471,327.9378531073446C281.12139357648334,330.77481840193707,280.6700648290196,332.15496368038737,280.2187360815559,332.19330104923324C279.7674073340921,332.23163841807906,279.31607858662835,330.9281678773204,278.41342109170085,326.0209846650524C277.51076359677336,321.1138014527845,276.15677735438214,312.60290556900725,275.25411985945465,310.1493139628733C274.35146236452715,307.69572235673934,273.9001336170634,311.29943502824864,273.44880486959966,315.40153349475383C272.9974761221359,319.5036319612591,272.54614737467216,324.1041162227603,272.0948186272084,330.0080710250202C271.6434898797446,335.91202582728005,271.1921611322809,343.11945117029865,270.74083238481717,343.1577885391445C270.2895036373534,343.19612590799034,269.8381748898896,336.0653753026635,268.9355173949621,330.65980629539956C268.0328599000346,325.25423728813564,266.67887365764335,321.57384987893465,265.77621616271585,328.28288942695724C264.87355866778836,334.9919289749798,264.42222992032464,352.090395480226,263.97090117286086,353.5472154963681C263.5195724253971,355.0040355125101,263.06824367793337,340.819209039548,262.61691493046965,332.19330104923324C262.16558618300587,323.56739305891847,261.7142574355421,320.500403551251,261.2629286880784,323.29903147699764C260.81159994061466,326.09765940274417,260.3602711931509,334.76190476190476,259.4576136982234,340.0524616626312C258.5549562032959,345.34301856335753,257.2009699609047,347.2598870056497,256.2983124659772,345.4196933010492C255.39565497104962,343.5794995964487,254.94432622358588,337.9822437449556,254.49299747612213,334.34019370460055C254.04166872865835,330.6981436642454,253.59033998119463,329.01129943502826,253.13901123373086,333.9951573849879C252.68768248626714,338.9790153349476,252.23635373880336,350.63357546408395,251.108031870144,365.0867635189669C249.97971000148462,379.53995157384986,248.1743950116296,396.79176755447935,247.04607314297022,406.6061339790153C245.91775127431086,416.42050040355116,245.4664225268471,418.7974172719935,245.01509377938336,417.37893462469725C244.56376503191962,415.9604519774011,244.11243628445587,410.74656981436635,243.66110753699212,423.89628732849064C243.20977878952837,437.04600484261493,242.75845004206462,468.55932203389824,242.30712129460088,481.0573042776432C241.85579254713713,493.55528652138815,241.40446379967338,487.03793381759476,240.50180630474588,482.36077481840186C239.59914880981836,477.683615819209,238.24516256742712,474.8466505246166,237.34250507249962,478.37368845843423C236.4398475775721,481.90072639225184,235.98851883010838,491.7917675544794,235.5371900826446,497.96408393866017C235.08586133518085,504.136400322841,234.6345325877171,506.589991928975,234.18320384025333,503.48466505246165C233.73187509278958,500.3793381759483,233.28054634532583,491.7150928167877,232.82921759786208,482.7058111380145C232.37788885039834,473.69652945924133,231.9265601029346,464.34221146085554,231.02390260800706,454.75786924939473C230.1212451130796,445.17352703793387,228.76725887068835,435.35916061339793,227.86460137576086,429.455205811138C226.96194388083336,423.5512510088781,226.5106151333696,421.55770782889425,226.05928638590584,419.21912832929786C225.6079576384421,416.88054882970135,225.15662889097834,414.19693301049233,224.7053001435146,412.16505246166264C224.25397139605084,410.13317191283295,223.8026426485871,408.7530266343826,223.35131390112338,402.0056497175142C222.89998515365963,395.2582728006457,222.44865640619588,383.14366424535916,221.54599891126838,369.4955609362389C220.6433414163409,355.8474576271186,219.28935517394962,340.66585956416463,218.38669767902212,333.5351089588377C217.48404018409462,326.4043583535109,217.03271143663085,327.3244552058111,216.58138268916713,324.9858757062147C216.13005394170335,322.6472962066182,215.67872519423958,317.0500403551251,215.22739644677583,316.6283292978208C214.77606769931208,316.20661824051655,214.32473895184833,320.96045197740114,213.87341020438458,324.90920096852307C213.42208145692084,328.8579499596449,212.9707527094571,332.00161420500405,212.0680952145296,341.35593220338984C211.1654377196021,350.71025020177564,209.81145147721085,366.27522195318807,208.90879398228338,379.42493946731236C208.00613648735586,392.57465698143665,207.5548077398921,403.30912025827274,207.10347899242836,420.86763518966904C206.65215024496462,438.42615012106535,206.20082149750087,462.80871670702174,205.74949275003712,470.62953995157375C205.29816400257334,478.45036319612586,204.8468352551096,469.7094430992736,204.39550650764585,462.80871670702174C203.94417776018207,455.9079903147699,203.49284901271835,450.8474576271186,202.59019151779083,452.5726392251816C201.68753402286333,454.29782082324454,200.3335477804721,462.80871670702174,199.4308902855446,466.41242937853104C198.52823279061707,470.01614205004034,198.07690404315332,468.7126715092817,197.62557529568957,461.0835351089588C197.17424654822582,453.454398708636,196.72291780076208,439.499596448749,196.27158905329833,428.6501210653753C195.82026030583458,417.8006456820016,195.36893155837083,410.0564971751412,194.91760281090708,403.19410815173524C194.46627406344334,396.33171912832927,194.0149453159796,390.3510895883777,193.1122878210521,384.44713478611783C192.20963032612457,378.54317998385795,190.85564408373332,372.71589991928977,189.95298658880583,369.99394673123487C189.05032909387833,367.27199354318,188.59900034641458,367.6553672316384,188.14767159895086,372.8309120258273C187.69634285148712,378.0064568200162,187.24501410402337,387.97417271993544,186.79368535655962,391.7312348668281C186.34235660909587,395.48829701372074,185.8910278616321,393.0347054075868,185.43969911416835,397.90355125100893C184.9883703667046,402.77239709443097,184.53704161924082,414.9636803874092,183.63438412431336,420.2542372881356C182.73172662938583,425.54479418886194,181.3777403869946,423.9346246973365,180.4750828920671,421.2126715092817C179.5724253971396,418.4907183212268,179.12109664967585,414.65698143664247,178.6697679022121,415.73042776432607C178.21843915474835,416.80387409200966,177.7671104072846,422.78450363196123,177.31578165982086,420.9059725585149C176.8644529123571,419.0274414850686,176.41312416489336,409.2897497982244,175.96179541742958,396.14003228410013C175.51046666996587,382.99031476997584,175.0591379225021,366.42857142857144,174.1564804275746,356.1924939467313C173.2538229326471,345.95641646489105,171.89983669025582,342.046004842615,170.99717919532833,336.79378531073445C170.09452170040083,331.5415657788539,169.64319295293706,324.9475383373689,168.96619983174145,327.1711057304278C168.28920671054584,329.3946731234867,167.38654921561834,340.4358353510896,166.7095560944227,349.7134786117837C166.03256297322707,358.9911218724779,165.58123422576332,366.5052461662632,164.67857673083583,374.134382566586C163.77591923590833,381.7635189669088,162.4219329935171,389.5076674737692,161.5192754985896,394.2231638418079C160.6166180036621,398.9386602098466,160.16528925619832,400.6255044390637,159.71396050873457,400.39548022598865C159.26263176127082,400.16545601291364,158.81130301380708,398.01856335754644,158.35997426634336,399.82041969330106C157.90864551887958,401.62227602905574,157.45731677141583,407.37288135593224,157.00598802395209,410.5932203389831C156.55465927648834,413.81355932203394,156.10333052902456,414.5036319612591,155.20067303409706,416.0371267150928C154.29801553916957,417.57062146892656,152.94402929677835,419.9475383373688,152.04137180185086,423.58958837772394C151.13871430692336,427.2316384180791,150.68738555945959,432.138821630347,150.23605681199584,434.32405165456015C149.7847280645321,436.5092816787732,149.3333993170683,435.9725585149314,148.8820705696046,434.4774011299435C148.43074182214082,432.9822437449556,147.9794130746771,430.5286521388216,147.52808432721332,430.22195318805484C147.0767555797496,429.9152542372881,146.62542683228583,431.75544794188863,145.72276933735836,432.75221953188054C144.82011184243083,433.7489911218725,143.4661256000396,433.90234059725583,142.5634681051121,438.8861985472155C141.66081061018457,443.87005649717514,141.20948186272082,453.684422921711,140.75815311525707,458.85996771589987C140.30682436779333,464.0355125100887,139.85549562032958,464.57223567393055,139.40416687286583,465.33898305084745C138.95283812540208,466.1057304277643,138.50150937793833,467.10250201775625,138.05018063047459,470.6678773204197C137.59885188301084,474.2332526230831,137.1475231355471,480.36723163841805,136.2448656406196,480.4055690072639C135.3422081456921,480.44390637610974,133.98822190330083,474.3866020984665,133.08556440837333,479.48547215496365C132.18290691344583,484.58434221146086,131.73157816598206,500.83938660209844,131.28024941851834,513.0306698950767C130.82892067105456,525.2219531880548,130.37759192359084,533.3494753833736,129.92626317612707,542.1670702179176C129.47493442866332,550.9846650524617,129.02360568119957,560.4923325262308,128.57227693373582,565.2461662631154C128.12094818627207,570,127.66961943880833,570,126.76696194388082,568.1981436642453C125.86430444895332,566.3962873284906,124.51031820656206,562.7925746569814,123.60766071163457,557.0803066989507C122.70500321670707,551.36803874092,122.25367446924332,543.5472154963679,121.80234572177957,540.0201775625503C121.35101697431583,536.4931396287328,120.89968822685208,537.2598870056497,120.44835947938833,535.8797417271994C119.99703073192458,534.499596448749,119.54570198446082,530.9725585149314,118.41738011580145,524.9152542372881C117.28905824714207,518.8579499596449,115.48374325728707,510.2703793381759,114.35542138862769,503.2929782082324C113.2270995199683,496.3155770782889,112.77577077250456,490.9483454398709,112.32444202504081,490.44995964487487C111.87311327757706,489.9515738498789,111.42178453011331,494.32203389830505,110.97045578264957,497.7340597255851C110.51912703518582,501.1460855528652,110.06779828772207,503.59967715899916,109.61646954025832,499.84261501210653C109.16514079279457,496.08555286521386,108.71381204533083,486.1178369652946,107.81115455040332,483.6642453591606C106.90849705547582,481.2106537530266,105.55451081308456,486.2711864406779,104.65185331815707,478.71872477804675C103.74919582322957,471.16626311541563,103.29786707576582,451.000807102502,102.84653832830207,439.6529459241324C102.39520958083833,428.3050847457627,101.94388083337456,425.774818401937,101.49255208591082,427.57667473769163C101.04122333844705,429.37853107344625,100.5898945909833,435.5125100887812,100.13856584351956,441.49313962873276C99.68723709605581,447.4737691686844,99.23590834859206,453.3010492332526,98.33325085366457,455.3329297820823C97.43059335873706,457.36481033091206,96.07660711634581,455.60129136400326,95.1739496214183,455.5629539951574C94.27129212649082,455.5246166263115,93.81996337902707,457.2114608555286,93.36863463156332,454.48950766747373C92.91730588409956,451.76755447941883,92.46597713663581,444.6368038740919,92.01464838917207,441.72316384180783C91.56331964170832,438.80952380952374,91.11199089424457,440.11299435028246,90.66066214678081,438.4644874899112C90.20933339931706,436.8159806295399,89.75800465185331,432.21549636803866,88.85534715692582,430.33696529459235C87.9526896619983,428.45843422114604,86.59870341960706,429.3018563357546,85.69604592467957,432.25383373688453C84.79338842975207,435.2058111380145,84.34205968228831,440.26634382566584,83.89073093482456,433.13559322033893C83.4394021873608,426.0048426150121,82.98807343989705,406.682808716707,82.5367446924333,399.28369652945923C82.08541594496955,391.88458434221144,81.6340871975058,396.40839386602096,81.18275845004206,397.55851493139625C80.73142970257831,398.7086359967716,80.28010095511455,396.4850686037127,79.37744346018707,399.0536723163842C78.47478596525956,401.62227602905574,77.12079972286831,408.98305084745766,76.21814222794082,415.3470540758677C75.3154847330133,421.7110573042777,74.86415598554956,427.07828894269574,74.41282723808581,430.0302663438257C73.96149849062206,432.9822437449556,73.51016974315831,433.51896690879744,73.05884099569455,433.59564164648907C72.6075122482308,433.67231638418076,72.15618350076706,433.2889426957223,71.70485475330331,428.9184826472962C71.25352600583955,424.54802259887003,70.8021972583758,416.1904761904762,69.8995397634483,408.8297013720742C68.9968822685208,401.4689265536723,67.64289602612955,395.1049233252623,66.74023853120205,387.4374495560936C65.83758103627454,379.76997578692493,65.3862522888108,370.7990314769976,64.93492354134706,363.5532687651332C64.4835947938833,356.3075060532688,64.03226604641955,350.7869249394673,63.58093729895581,345.8030669895077C63.129608551492055,340.819209039548,62.67827980402831,336.3720742534302,62.22695105656455,332.998385794996C61.775622309100804,329.6246973365617,61.32429356163705,327.3244552058111,60.42163606670955,324.41081517352706C59.51897857178205,321.4971751412429,58.1649923293908,317.97013720742535,57.2623348344633,316.70500403551256C56.3596773395358,315.4398708635997,55.90834859207205,316.4366424535916,55.4570198446083,319.8870056497176C55.00569109714455,323.33736884584346,54.5543623496808,329.24132364810333,54.10303360221705,330.73648103309125C53.6517048547533,332.2316384180791,53.20037610728954,329.317998385795,52.749047359825795,330.12308313155773C52.29771861236205,330.92816787732045,51.8463898648983,335.45197740112997,50.71806799623892,341.7393058918483C49.589746127579545,348.0266343825666,47.784431137724546,356.0774818401936,46.65610926906517,352.4737691686844C45.52778740040579,348.8700564971751,45.076458652942044,333.6117836965294,44.625129905478296,323.9124293785311C44.17380115801454,314.21307506053273,43.72247241055079,310.07263922518166,43.271143663087045,306.39225181598067C42.8198149156233,302.7118644067797,42.36848616815954,299.49152542372883,41.46582867323204,298.7631154156578C40.56317117830454,298.0347054075868,39.2091849359133,299.7982243744956,38.306527440985796,296.3861985472155C37.40386994605829,292.9741727199354,36.952541198594545,284.3866020984665,36.5012124511308,279.7861178369652C36.04988370366704,275.185633575464,35.598554956203294,274.57223567393055,35.147226208739546,275.9523809523809C34.69589746127579,277.3325262308313,34.24456871381204,280.70621468926555,33.793239966348295,294.0859564164649C33.34191121888455,307.46569814366427,32.89058247142079,330.8514931396287,31.98792497649329,347.98829701372074C31.08526748156579,365.1251008878127,29.73128123917454,376.01291364003225,28.82862374424704,381.30347054075867C27.925966249319536,386.5940274414851,27.47463750185579,386.2873284907183,27.02330875439204,386.51735270379334C26.57198000692829,386.74737691686846,26.120651259464537,387.51412429378524,25.66932251200079,388.7409200968523C25.21799376453704,389.96771589991926,24.76666501707329,391.65456012913637,24.31533626960954,392.1529459241324C23.86400752214579,392.6513317191284,23.412678774682043,391.9612590799032,22.51002127975454,396.408393866021C21.60736378482704,400.85552865213884,20.25337754243579,410.4398708635997,19.35072004750829,415.19370460048424C18.448062552580787,419.9475383373688,17.99673380511704,419.87086359967714,17.545405057653287,417.6472962066182C17.094076310189536,415.4237288135593,16.642747562725788,411.05326876513317,16.19141881526204,405.1109765940274C15.740090067798288,399.16868442292173,15.288761320334537,391.6545601291364,14.837432572870785,391.0028248587571C14.386103825407035,390.35108958837776,13.934775077943286,396.5617433414044,13.041520265254615,409.97982243744957C12.148265452565942,423.39790153349475,10.813084574652349,444.0234059725585,9.919829761963676,453.5694108151735C9.026574949275004,463.1154156577885,8.575246201811254,461.5819209039548,8.123917454347502,459.85673930589184C7.672588706883753,458.1315577078289,7.221259959420003,456.2146892655368,6.769931211956252,454.2978208232446C6.3186024644925025,452.3809523809524,5.867273717028752,450.4640839386602,5.415944969565002,447.6271186440678C4.9646162221012515,444.7901533494754,4.513287474637501,441.03309120258274,3.610629979710001,425.3914447134786C2.7079724847825006,409.74979822437456,1.3539862423912503,382.22356739305894,0.6769931211956252,368.4604519774012C0,354.69733656174344,0,354.69733656174344,0,354.6973365617434" d="M1140,460.0484261501211C1140,460.04842615012103,1140,460.04842615012103,1126.2344732023557,437.04600484261505C1112.4689464047112,414.04358353510895,1084.9378928094225,368.03874092009687,1057.8675706438362,314.36642453591605C1030.79724847825,260.6941081517353,1004.1876577423664,199.3543179983858,976.8916712030483,145.68200161420498C949.5956846637303,92.00968523002419,921.6133023209777,46.004842615012095,893.8471816697183,38.337368845843415C866.0810610184589,30.669895076674738,838.5312020586925,61.339790153349476,810.990745781165,103.51089588377724C783.4502895036374,145.682001614205,755.9192359083486,199.35431799838582,728.3881823130598,249.19289749798224C700.857128717771,299.0314769975787,673.3260751224823,345.03631961259083,645.7950215271935,391.0411622276029C618.2639679319047,437.04600484261505,590.732914336616,483.0508474576271,563.6625921710298,486.19451170298623C536.5922700054437,489.33817594834545,509.98267926956,449.6206618240517,496.4522195278863,430.45197740112997C482.92175978621265,411.28329297820824,482.4704310387489,412.66343825665854,482.0191022912852,413.775221953188C481.56777354382143,414.8870056497175,481.11644479635765,415.73042776432607,480.6651160488939,416.19047619047626C480.2137873014301,416.65052461662634,479.7624585539664,416.72719935431803,478.634136685307,416.45883777239715C477.50581481664767,416.1904761904762,475.7004998267927,415.5770782889427,474.57217795813324,417.2639225181598C473.4438560894739,418.95076674737686,472.99252734201013,422.9378531073446,472.5411985945464,423.5895883777239C472.0898698470827,424.2413236481033,471.6385410996189,421.5577078288942,471.18721235215514,420.71428571428567C470.7358836046914,419.87086359967714,470.2845548572277,420.86763518966904,469.8332261097639,421.48103309120256C469.38189736230015,422.0944309927361,468.9305686148364,422.3244552058111,468.0279111199089,421.5960451977401C467.1252536249814,420.86763518966904,465.77126738259017,419.180790960452,464.86860988766267,420.2542372881355C463.9659523927352,421.3276836158192,463.5146236452714,425.16142050040355,463.0632948978076,423.12953995157386C462.6119661503439,421.0976594027441,462.1606374028802,413.20016142050036,461.7093086554164,413.8518966908797C461.2579799079527,414.50363196125903,460.8066511604889,423.70460048426145,460.3553224130252,431.5254237288135C459.9039936655614,439.34624697336557,459.45266491809764,445.78692493946727,458.5500074231701,448.50887812752217C457.64734992824265,451.23083131557706,456.29336368585143,450.23405972558515,455.39070619092394,446.78369652945923C454.48804869599644,443.33333333333337,454.03671994853266,437.4293785310735,453.58539120106894,437.46771589991937C453.13406245360517,437.5060532687652,452.68273370614145,443.48668280871675,452.2314049586777,445.0201775625505C451.7800762112139,446.5536723163842,451.3287474637501,443.64003228410013,450.87741871628634,441.45480225988706C450.42608996882257,439.269572235674,449.97476122135885,437.8127522195319,449.07210372643135,436.54761904761904C448.16944623150385,435.2824858757062,446.8154599891126,434.2090395480226,445.91280249418514,434.9757869249395C445.01014499925765,435.7425343018563,444.5588162517939,438.3494753833737,444.10748750433015,441.5314769975787C443.65615875686643,444.7134786117837,443.20483000940266,448.47054075867635,442.7535012619389,452.0359160613398C442.30217251447516,455.6012913640032,441.85084376701144,458.97497982243743,440.72252189835206,459.12832929782076C439.59420002969273,459.2816787732042,437.7888850398377,456.2146892655367,436.6605631711783,454.79620661824055C435.5322413025189,453.3777239709443,435.0809125550552,453.6077481840194,434.6295838075914,453.3777239709443C434.17825506012764,453.14769975786925,433.7269263126639,452.45762711864404,433.2755975652002,451.1541565778854C432.8242688177364,449.8506860371267,432.37294007027265,447.9338175948345,431.9216113228089,441.7615012106537C431.47028257534515,435.589184826473,431.0189538278814,425.16142050040355,430.1162963329538,419.37247780468124C429.2136388380263,413.58353510895887,427.8596525956351,412.4334140435835,426.9569951007077,411.589991928975C426.0543376057801,410.7465698143664,425.60300885831634,410.2098466505246,425.1516801108526,415.42372881355925C424.7003513633889,420.637610976594,424.2490226159251,431.6020984665052,423.79769386846135,436.8159806295399C423.34636512099763,442.02986279257465,422.8950363735339,441.4931396287329,422.44370762607014,440.2663438256659C421.99237887860636,439.0395480225989,421.5410501311426,437.12267958030674,420.6383926362151,434.4774011299435C419.7357351412876,431.8321226795803,418.3817488988964,428.4584342211461,417.4790914039689,432.0238095238096C416.5764339090414,435.589184826473,416.1251051615776,446.0936238902341,415.67377641411383,453.0710250201776C415.2224476666501,460.0484261501211,414.7711189191864,463.498789346247,414.0941257979908,468.4826472962066C413.4171326767952,473.4665052461662,412.5144751818677,479.9838579499596,411.3861533132083,483.16585956416463C410.2578314445489,486.3478611783696,408.90384520215764,486.19451170298623,408.00118770723014,486.271186440678C407.09853021230265,486.34786117836967,406.6472014648389,486.6545601291364,406.19587271737515,487.5746569814367C405.7445439699114,488.4947538337369,405.29321522244766,490.02824858757066,404.616222101252,491.5234059725586C403.9392289800564,493.01856335754644,403.0365714851289,494.47538337368843,401.9082496164695,493.0569007263922C400.7799277478101,491.638418079096,399.42594150541885,487.3446327683615,398.52328401049135,485.54277643260696C397.62062651556386,483.7409200968523,397.16929776810014,484.4309927360774,396.71796902063636,486.53954802259886C396.26664027317264,488.64810330912024,395.81531152570886,492.17514124293785,395.3639827782451,495.4338175948346C394.91265403078137,498.69249394673125,394.46132528331765,501.68280871670703,394.0099965358539,499.84261501210653C393.55866778839015,498.00242130750604,393.1073390409264,491.33171912832927,392.2046815459989,485.96448748991116C391.3020240510714,480.59725585149306,389.9480378086801,476.5334947538337,389.0453803137526,473.73486682808715C388.1427228188251,470.93623890234056,387.6913940713614,469.4027441485068,387.2400653238976,468.78934624697337C386.78873657643385,468.1759483454399,386.33740782897013,468.4826472962066,385.8860790815064,469.86279257465696C385.43475033404263,471.2429378531073,384.98342158657886,473.69652945924133,384.53209283911514,476.7635189669088C384.0807640916514,479.8305084745763,383.62943534418764,483.5108958837772,382.72677784926015,484.4693301049233C381.82412035433265,485.4277643260694,380.4701341119413,483.66424535916065,379.5674766170139,486.46287328490723C378.6648191220863,489.26150121065376,378.2134903746226,496.6222760290557,377.7621616271589,497.4273607748184C377.3108328796951,498.2324455205811,376.8595041322314,492.4818401937046,376.4081753847677,488.8014527845036C375.9568466373039,485.1210653753027,375.5055178898401,483.51089588377727,375.05418914237634,481.86238902340597C374.6028603949127,480.2138821630347,374.1515316474489,478.5270379338176,373.2488741525214,479.0637610976594C372.3462166575939,479.6004842615012,370.99223041520264,482.3607748184019,370.0895729202751,481.6707021791767C369.1869154253476,480.98062953995156,368.7355866778839,476.8401937046005,368.28425793042015,471.8946731234867C367.8329291829564,466.9491525423729,367.3816004354926,461.1985472154964,366.9302716880289,458.1698950766747C366.47894294056516,455.1412429378531,366.0276141931014,454.83454398708636,365.5762854456376,459.47336561743344C365.1249566981739,464.1121872477805,364.67362795071017,473.6965294592414,363.7709704557827,478.52703793381767C362.8683129608551,483.3575464083939,361.51432671846385,483.4342211460856,360.38600484980446,484.5076674737692C359.25768298114514,485.5811138014528,358.35502548621764,487.6513317191283,357.678032365022,488.30306698950767C357.00103924382637,488.954802259887,356.5497104963626,488.18805488297016,356.0983817488989,487.8430185633576C355.6470530014351,487.497982243745,355.1957242539714,487.57465698143665,354.2930667590439,493.2869249394673C353.3904092641164,498.999192897498,352.0364230217251,510.3470540758676,351.13376552679756,516.4426957223568C350.2311080318701,522.5383373688459,349.77977928440635,523.3817594834544,349.3284505369426,525.4903147699757C348.87712178947885,527.5988700564972,348.42579304201513,530.9725585149314,347.97446429455135,530.9725585149314C347.5231355470876,530.9725585149314,347.07180679962386,527.5988700564972,346.62047805216014,526.4487489911219C346.16914930469636,525.2986279257466,345.71782055723264,526.3720742534301,344.81516306230515,524.4168684422922C343.9125055673776,522.4616626311541,342.5585193249864,517.4778046811946,341.6558618300588,514.7941888619855C340.75320433513133,512.1105730427764,340.3018755876676,511.72719935431803,339.85054684020383,509.12025827280064C339.3992180927401,506.5133171912833,338.94788934527634,501.6828087167071,338.4965605978126,499.8426150121066C338.04523185034884,498.0024213075061,337.5939031028851,499.1525423728814,337.1425743554214,496.4305891848265C336.6912456079576,493.7086359967716,336.23991686049385,487.1146085552865,335.3278566833276,478.45036319612586C334.4157965061612,469.7861178369653,333.0430048992923,459.0516545601291,332.130944722126,440.18966908797415C331.2188845449597,421.3276836158192,330.7675557974959,394.33817594834545,330.3162270500321,380.57506053268764C329.8648983025684,366.81194511702984,329.4135695551047,366.275221953188,328.0595833127134,369.57223567393055C326.70559707032214,372.8692493946731,324.4489533330034,380,323.0949670906121,380.2683615819209C321.7409808482209,380.53672316384177,321.2896521007571,373.9426957223567,320.8383233532934,363.9749798224375C320.3869946058296,354.0072639225182,319.9356658583659,340.6658595641647,319.4843371109022,340.78087167070225C319.0330083634384,340.89588377723976,318.5816796159746,354.4673123486683,318.1303508685109,360.2179176755448C317.6790221210471,365.9685230024213,317.2276933735834,363.8983050847458,316.3250358786559,361.5597255851494C315.42237838372836,359.2211460855529,314.0683921413371,356.6142050040355,313.1657346464096,354.7356739305892C312.2630771514821,352.85714285714283,311.8117484040184,351.7070217917675,311.36041965655465,347.5282485875706C310.9090909090909,343.34947538337366,310.45776216162716,336.1420500403551,310.00643341416344,335.79701372074254C309.55510466669966,335.45197740112997,309.1037759192359,341.9693301049233,308.65244717177217,343.4644874899112C308.20111842430845,344.95964487489914,307.74978967684467,341.43260694108153,306.8471321819171,339.93744955609367C305.9444746869897,338.4422921711058,304.59048844459835,338.9790153349476,303.6878309496709,337.3688458434221C302.78517345474336,335.7586763518967,302.33384470727964,332.001614205004,301.8825159598159,330.5831315577078C301.43118721235214,329.1646489104116,300.97985846488837,330.08474576271186,300.52852971742465,323.5673930589185C300.07720096996087,317.05004035512513,299.62587222249715,303.09523809523813,299.1745434750334,292.89749798224375C298.72321472756965,282.6997578692494,298.2718859801059,276.2590799031477,297.3692284851784,272.5403551251009C296.4665709902509,268.8216303470541,295.1125847478596,267.8248587570622,294.2099272529321,265.4479418886199C293.3072697580046,263.0710250201776,292.85594101054085,259.31396287328494,292.4046122630771,260.50242130750604C291.9532835156134,261.6908797417272,291.50195476814963,267.82485875706215,291.0506260206859,272.80871670702174C290.59929727322213,277.7925746569814,290.1479685257584,281.62631154156577,289.69663977829464,282.8914447134786C289.24531103083086,284.15657788539147,288.79398228336714,282.85310734463275,287.89132478843965,284.9233252623083C286.98866729351215,286.9935431799838,285.6346810511209,292.4374495560936,284.7320235561934,298.2647296206618C283.8293660612659,304.09200968523004,283.3780373138021,310.3026634382567,282.92670856633833,315.55488297013727C282.4753798188746,320.80710250201776,282.0240510714109,325.10088781275226,281.5727223239471,327.9378531073446C281.12139357648334,330.77481840193707,280.6700648290196,332.15496368038737,280.2187360815559,332.19330104923324C279.7674073340921,332.23163841807906,279.31607858662835,330.9281678773204,278.41342109170085,326.0209846650524C277.51076359677336,321.1138014527845,276.15677735438214,312.60290556900725,275.25411985945465,310.1493139628733C274.35146236452715,307.69572235673934,273.9001336170634,311.29943502824864,273.44880486959966,315.40153349475383C272.9974761221359,319.5036319612591,272.54614737467216,324.1041162227603,272.0948186272084,330.0080710250202C271.6434898797446,335.91202582728005,271.1921611322809,343.11945117029865,270.74083238481717,343.1577885391445C270.2895036373534,343.19612590799034,269.8381748898896,336.0653753026635,268.9355173949621,330.65980629539956C268.0328599000346,325.25423728813564,266.67887365764335,321.57384987893465,265.77621616271585,328.28288942695724C264.87355866778836,334.9919289749798,264.42222992032464,352.090395480226,263.97090117286086,353.5472154963681C263.5195724253971,355.0040355125101,263.06824367793337,340.819209039548,262.61691493046965,332.19330104923324C262.16558618300587,323.56739305891847,261.7142574355421,320.500403551251,261.2629286880784,323.29903147699764C260.81159994061466,326.09765940274417,260.3602711931509,334.76190476190476,259.4576136982234,340.0524616626312C258.5549562032959,345.34301856335753,257.2009699609047,347.2598870056497,256.2983124659772,345.4196933010492C255.39565497104962,343.5794995964487,254.94432622358588,337.9822437449556,254.49299747612213,334.34019370460055C254.04166872865835,330.6981436642454,253.59033998119463,329.01129943502826,253.13901123373086,333.9951573849879C252.68768248626714,338.9790153349476,252.23635373880336,350.63357546408395,251.108031870144,365.0867635189669C249.97971000148462,379.53995157384986,248.1743950116296,396.79176755447935,247.04607314297022,406.6061339790153C245.91775127431086,416.42050040355116,245.4664225268471,418.7974172719935,245.01509377938336,417.37893462469725C244.56376503191962,415.9604519774011,244.11243628445587,410.74656981436635,243.66110753699212,423.89628732849064C243.20977878952837,437.04600484261493,242.75845004206462,468.55932203389824,242.30712129460088,481.0573042776432C241.85579254713713,493.55528652138815,241.40446379967338,487.03793381759476,240.50180630474588,482.36077481840186C239.59914880981836,477.683615819209,238.24516256742712,474.8466505246166,237.34250507249962,478.37368845843423C236.4398475775721,481.90072639225184,235.98851883010838,491.7917675544794,235.5371900826446,497.96408393866017C235.08586133518085,504.136400322841,234.6345325877171,506.589991928975,234.18320384025333,503.48466505246165C233.73187509278958,500.3793381759483,233.28054634532583,491.7150928167877,232.82921759786208,482.7058111380145C232.37788885039834,473.69652945924133,231.9265601029346,464.34221146085554,231.02390260800706,454.75786924939473C230.1212451130796,445.17352703793387,228.76725887068835,435.35916061339793,227.86460137576086,429.455205811138C226.96194388083336,423.5512510088781,226.5106151333696,421.55770782889425,226.05928638590584,419.21912832929786C225.6079576384421,416.88054882970135,225.15662889097834,414.19693301049233,224.7053001435146,412.16505246166264C224.25397139605084,410.13317191283295,223.8026426485871,408.7530266343826,223.35131390112338,402.0056497175142C222.89998515365963,395.2582728006457,222.44865640619588,383.14366424535916,221.54599891126838,369.4955609362389C220.6433414163409,355.8474576271186,219.28935517394962,340.66585956416463,218.38669767902212,333.5351089588377C217.48404018409462,326.4043583535109,217.03271143663085,327.3244552058111,216.58138268916713,324.9858757062147C216.13005394170335,322.6472962066182,215.67872519423958,317.0500403551251,215.22739644677583,316.6283292978208C214.77606769931208,316.20661824051655,214.32473895184833,320.96045197740114,213.87341020438458,324.90920096852307C213.42208145692084,328.8579499596449,212.9707527094571,332.00161420500405,212.0680952145296,341.35593220338984C211.1654377196021,350.71025020177564,209.81145147721085,366.27522195318807,208.90879398228338,379.42493946731236C208.00613648735586,392.57465698143665,207.5548077398921,403.30912025827274,207.10347899242836,420.86763518966904C206.65215024496462,438.42615012106535,206.20082149750087,462.80871670702174,205.74949275003712,470.62953995157375C205.29816400257334,478.45036319612586,204.8468352551096,469.7094430992736,204.39550650764585,462.80871670702174C203.94417776018207,455.9079903147699,203.49284901271835,450.8474576271186,202.59019151779083,452.5726392251816C201.68753402286333,454.29782082324454,200.3335477804721,462.80871670702174,199.4308902855446,466.41242937853104C198.52823279061707,470.01614205004034,198.07690404315332,468.7126715092817,197.62557529568957,461.0835351089588C197.17424654822582,453.454398708636,196.72291780076208,439.499596448749,196.27158905329833,428.6501210653753C195.82026030583458,417.8006456820016,195.36893155837083,410.0564971751412,194.91760281090708,403.19410815173524C194.46627406344334,396.33171912832927,194.0149453159796,390.3510895883777,193.1122878210521,384.44713478611783C192.20963032612457,378.54317998385795,190.85564408373332,372.71589991928977,189.95298658880583,369.99394673123487C189.05032909387833,367.27199354318,188.59900034641458,367.6553672316384,188.14767159895086,372.8309120258273C187.69634285148712,378.0064568200162,187.24501410402337,387.97417271993544,186.79368535655962,391.7312348668281C186.34235660909587,395.48829701372074,185.8910278616321,393.0347054075868,185.43969911416835,397.90355125100893C184.9883703667046,402.77239709443097,184.53704161924082,414.9636803874092,183.63438412431336,420.2542372881356C182.73172662938583,425.54479418886194,181.3777403869946,423.9346246973365,180.4750828920671,421.2126715092817C179.5724253971396,418.4907183212268,179.12109664967585,414.65698143664247,178.6697679022121,415.73042776432607C178.21843915474835,416.80387409200966,177.7671104072846,422.78450363196123,177.31578165982086,420.9059725585149C176.8644529123571,419.0274414850686,176.41312416489336,409.2897497982244,175.96179541742958,396.14003228410013C175.51046666996587,382.99031476997584,175.0591379225021,366.42857142857144,174.1564804275746,356.1924939467313C173.2538229326471,345.95641646489105,171.89983669025582,342.046004842615,170.99717919532833,336.79378531073445C170.09452170040083,331.5415657788539,169.64319295293706,324.9475383373689,168.96619983174145,327.1711057304278C168.28920671054584,329.3946731234867,167.38654921561834,340.4358353510896,166.7095560944227,349.7134786117837C166.03256297322707,358.9911218724779,165.58123422576332,366.5052461662632,164.67857673083583,374.134382566586C163.77591923590833,381.7635189669088,162.4219329935171,389.5076674737692,161.5192754985896,394.2231638418079C160.6166180036621,398.9386602098466,160.16528925619832,400.6255044390637,159.71396050873457,400.39548022598865C159.26263176127082,400.16545601291364,158.81130301380708,398.01856335754644,158.35997426634336,399.82041969330106C157.90864551887958,401.62227602905574,157.45731677141583,407.37288135593224,157.00598802395209,410.5932203389831C156.55465927648834,413.81355932203394,156.10333052902456,414.5036319612591,155.20067303409706,416.0371267150928C154.29801553916957,417.57062146892656,152.94402929677835,419.9475383373688,152.04137180185086,423.58958837772394C151.13871430692336,427.2316384180791,150.68738555945959,432.138821630347,150.23605681199584,434.32405165456015C149.7847280645321,436.5092816787732,149.3333993170683,435.9725585149314,148.8820705696046,434.4774011299435C148.43074182214082,432.9822437449556,147.9794130746771,430.5286521388216,147.52808432721332,430.22195318805484C147.0767555797496,429.9152542372881,146.62542683228583,431.75544794188863,145.72276933735836,432.75221953188054C144.82011184243083,433.7489911218725,143.4661256000396,433.90234059725583,142.5634681051121,438.8861985472155C141.66081061018457,443.87005649717514,141.20948186272082,453.684422921711,140.75815311525707,458.85996771589987C140.30682436779333,464.0355125100887,139.85549562032958,464.57223567393055,139.40416687286583,465.33898305084745C138.95283812540208,466.1057304277643,138.50150937793833,467.10250201775625,138.05018063047459,470.6678773204197C137.59885188301084,474.2332526230831,137.1475231355471,480.36723163841805,136.2448656406196,480.4055690072639C135.3422081456921,480.44390637610974,133.98822190330083,474.3866020984665,133.08556440837333,479.48547215496365C132.18290691344583,484.58434221146086,131.73157816598206,500.83938660209844,131.28024941851834,513.0306698950767C130.82892067105456,525.2219531880548,130.37759192359084,533.3494753833736,129.92626317612707,542.1670702179176C129.47493442866332,550.9846650524617,129.02360568119957,560.4923325262308,128.57227693373582,565.2461662631154C128.12094818627207,570,127.66961943880833,570,126.76696194388082,568.1981436642453C125.86430444895332,566.3962873284906,124.51031820656206,562.7925746569814,123.60766071163457,557.0803066989507C122.70500321670707,551.36803874092,122.25367446924332,543.5472154963679,121.80234572177957,540.0201775625503C121.35101697431583,536.4931396287328,120.89968822685208,537.2598870056497,120.44835947938833,535.8797417271994C119.99703073192458,534.499596448749,119.54570198446082,530.9725585149314,118.41738011580145,524.9152542372881C117.28905824714207,518.8579499596449,115.48374325728707,510.2703793381759,114.35542138862769,503.2929782082324C113.2270995199683,496.3155770782889,112.77577077250456,490.9483454398709,112.32444202504081,490.44995964487487C111.87311327757706,489.9515738498789,111.42178453011331,494.32203389830505,110.97045578264957,497.7340597255851C110.51912703518582,501.1460855528652,110.06779828772207,503.59967715899916,109.61646954025832,499.84261501210653C109.16514079279457,496.08555286521386,108.71381204533083,486.1178369652946,107.81115455040332,483.6642453591606C106.90849705547582,481.2106537530266,105.55451081308456,486.2711864406779,104.65185331815707,478.71872477804675C103.74919582322957,471.16626311541563,103.29786707576582,451.000807102502,102.84653832830207,439.6529459241324C102.39520958083833,428.3050847457627,101.94388083337456,425.774818401937,101.49255208591082,427.57667473769163C101.04122333844705,429.37853107344625,100.5898945909833,435.5125100887812,100.13856584351956,441.49313962873276C99.68723709605581,447.4737691686844,99.23590834859206,453.3010492332526,98.33325085366457,455.3329297820823C97.43059335873706,457.36481033091206,96.07660711634581,455.60129136400326,95.1739496214183,455.5629539951574C94.27129212649082,455.5246166263115,93.81996337902707,457.2114608555286,93.36863463156332,454.48950766747373C92.91730588409956,451.76755447941883,92.46597713663581,444.6368038740919,92.01464838917207,441.72316384180783C91.56331964170832,438.80952380952374,91.11199089424457,440.11299435028246,90.66066214678081,438.4644874899112C90.20933339931706,436.8159806295399,89.75800465185331,432.21549636803866,88.85534715692582,430.33696529459235C87.9526896619983,428.45843422114604,86.59870341960706,429.3018563357546,85.69604592467957,432.25383373688453C84.79338842975207,435.2058111380145,84.34205968228831,440.26634382566584,83.89073093482456,433.13559322033893C83.4394021873608,426.0048426150121,82.98807343989705,406.682808716707,82.5367446924333,399.28369652945923C82.08541594496955,391.88458434221144,81.6340871975058,396.40839386602096,81.18275845004206,397.55851493139625C80.73142970257831,398.7086359967716,80.28010095511455,396.4850686037127,79.37744346018707,399.0536723163842C78.47478596525956,401.62227602905574,77.12079972286831,408.98305084745766,76.21814222794082,415.3470540758677C75.3154847330133,421.7110573042777,74.86415598554956,427.07828894269574,74.41282723808581,430.0302663438257C73.96149849062206,432.9822437449556,73.51016974315831,433.51896690879744,73.05884099569455,433.59564164648907C72.6075122482308,433.67231638418076,72.15618350076706,433.2889426957223,71.70485475330331,428.9184826472962C71.25352600583955,424.54802259887003,70.8021972583758,416.1904761904762,69.8995397634483,408.8297013720742C68.9968822685208,401.4689265536723,67.64289602612955,395.1049233252623,66.74023853120205,387.4374495560936C65.83758103627454,379.76997578692493,65.3862522888108,370.7990314769976,64.93492354134706,363.5532687651332C64.4835947938833,356.3075060532688,64.03226604641955,350.7869249394673,63.58093729895581,345.8030669895077C63.129608551492055,340.819209039548,62.67827980402831,336.3720742534302,62.22695105656455,332.998385794996C61.775622309100804,329.6246973365617,61.32429356163705,327.3244552058111,60.42163606670955,324.41081517352706C59.51897857178205,321.4971751412429,58.1649923293908,317.97013720742535,57.2623348344633,316.70500403551256C56.3596773395358,315.4398708635997,55.90834859207205,316.4366424535916,55.4570198446083,319.8870056497176C55.00569109714455,323.33736884584346,54.5543623496808,329.24132364810333,54.10303360221705,330.73648103309125C53.6517048547533,332.2316384180791,53.20037610728954,329.317998385795,52.749047359825795,330.12308313155773C52.29771861236205,330.92816787732045,51.8463898648983,335.45197740112997,50.71806799623892,341.7393058918483C49.589746127579545,348.0266343825666,47.784431137724546,356.0774818401936,46.65610926906517,352.4737691686844C45.52778740040579,348.8700564971751,45.076458652942044,333.6117836965294,44.625129905478296,323.9124293785311C44.17380115801454,314.21307506053273,43.72247241055079,310.07263922518166,43.271143663087045,306.39225181598067C42.8198149156233,302.7118644067797,42.36848616815954,299.49152542372883,41.46582867323204,298.7631154156578C40.56317117830454,298.0347054075868,39.2091849359133,299.7982243744956,38.306527440985796,296.3861985472155C37.40386994605829,292.9741727199354,36.952541198594545,284.3866020984665,36.5012124511308,279.7861178369652C36.04988370366704,275.185633575464,35.598554956203294,274.57223567393055,35.147226208739546,275.9523809523809C34.69589746127579,277.3325262308313,34.24456871381204,280.70621468926555,33.793239966348295,294.0859564164649C33.34191121888455,307.46569814366427,32.89058247142079,330.8514931396287,31.98792497649329,347.98829701372074C31.08526748156579,365.1251008878127,29.73128123917454,376.01291364003225,28.82862374424704,381.30347054075867C27.925966249319536,386.5940274414851,27.47463750185579,386.2873284907183,27.02330875439204,386.51735270379334C26.57198000692829,386.74737691686846,26.120651259464537,387.51412429378524,25.66932251200079,388.7409200968523C25.21799376453704,389.96771589991926,24.76666501707329,391.65456012913637,24.31533626960954,392.1529459241324C23.86400752214579,392.6513317191284,23.412678774682043,391.9612590799032,22.51002127975454,396.408393866021C21.60736378482704,400.85552865213884,20.25337754243579,410.4398708635997,19.35072004750829,415.19370460048424C18.448062552580787,419.9475383373688,17.99673380511704,419.87086359967714,17.545405057653287,417.6472962066182C17.094076310189536,415.4237288135593,16.642747562725788,411.05326876513317,16.19141881526204,405.1109765940274C15.740090067798288,399.16868442292173,15.288761320334537,391.6545601291364,14.837432572870785,391.0028248587571C14.386103825407035,390.35108958837776,13.934775077943286,396.5617433414044,13.041520265254615,409.97982243744957C12.148265452565942,423.39790153349475,10.813084574652349,444.0234059725585,9.919829761963676,453.5694108151735C9.026574949275004,463.1154156577885,8.575246201811254,461.5819209039548,8.123917454347502,459.85673930589184C7.672588706883753,458.1315577078289,7.221259959420003,456.2146892655368,6.769931211956252,454.2978208232446C6.3186024644925025,452.3809523809524,5.867273717028752,450.4640839386602,5.415944969565002,447.6271186440678C4.9646162221012515,444.7901533494754,4.513287474637501,441.03309120258274,3.610629979710001,425.3914447134786C2.7079724847825006,409.74979822437456,1.3539862423912503,382.22356739305894,0.6769931211956252,368.4604519774012C0,354.69733656174344,0,354.69733656174344,0,354.6973365617434"></path><g class="axis" transform="translate(0,570)"><g class="tick major" style="opacity: 1;" transform="translate(40.56317117830454,0)"><line y2="6" x2="0"></line><text y="9" x="0" dy=".71em" style="text-anchor: middle;">April</text></g><g class="tick major" style="opacity: 1;" transform="translate(163.77591923590833,0)"><line y2="6" x2="0"></line><text y="9" x="0" dy=".71em" style="text-anchor: middle;">July</text></g><g class="tick major" style="opacity: 1;" transform="translate(288.3426535359034,0)"><line y2="6" x2="0"></line><text y="9" x="0" dy=".71em" style="text-anchor: middle;">October</text></g><g class="tick major" style="opacity: 1;" transform="translate(412.96580392933146,0)"><line y2="6" x2="0"></line><text y="9" x="0" dy=".71em" style="text-anchor: middle;">2013</text></g><g class="tick major" style="opacity: 1;" transform="translate(534.768149651111,0)"><line y2="6" x2="0"></line><text y="9" x="0" dy=".71em" style="text-anchor: middle;">April</text></g><g class="tick major" style="opacity: 1;" transform="translate(657.9808977087147,0)"><line y2="6" x2="0"></line><text y="9" x="0" dy=".71em" style="text-anchor: middle;">July</text></g><g class="tick major" style="opacity: 1;" transform="translate(782.5476320087099,0)"><line y2="6" x2="0"></line><text y="9" x="0" dy=".71em" style="text-anchor: middle;">October</text></g><g class="tick major" style="opacity: 1;" transform="translate(907.1707824021379,0)"><line y2="6" x2="0"></line><text y="9" x="0" dy=".71em" style="text-anchor: middle;">2014</text></g><g class="tick major" style="opacity: 1;" transform="translate(1028.9731281239174,0)"><line y2="6" x2="0"></line><text y="9" x="0" dy=".71em" style="text-anchor: middle;">April</text></g><path class="domain" d="M0,6V0H1140V6"></path><text class="priceLabels" x="1140" y="-6" style="text-anchor: end;">Time</text></g><g class="axis"><g class="tick major" style="opacity: 1;" transform="translate(0,552.0581113801453)"><line x2="-6" y2="0"></line><text x="-9" y="0" dy=".32em" style="text-anchor: end;">16</text></g><g class="tick major" style="opacity: 1;" transform="translate(0,506.05326876513317)"><line x2="-6" y2="0"></line><text x="-9" y="0" dy=".32em" style="text-anchor: end;">18</text></g><g class="tick major" style="opacity: 1;" transform="translate(0,460.0484261501211)"><line x2="-6" y2="0"></line><text x="-9" y="0" dy=".32em" style="text-anchor: end;">20</text></g><g class="tick major" style="opacity: 1;" transform="translate(0,414.04358353510895)"><line x2="-6" y2="0"></line><text x="-9" y="0" dy=".32em" style="text-anchor: end;">22</text></g><g class="tick major" style="opacity: 1;" transform="translate(0,368.03874092009687)"><line x2="-6" y2="0"></line><text x="-9" y="0" dy=".32em" style="text-anchor: end;">24</text></g><g class="tick major" style="opacity: 1;" transform="translate(0,322.0338983050848)"><line x2="-6" y2="0"></line><text x="-9" y="0" dy=".32em" style="text-anchor: end;">26</text></g><g class="tick major" style="opacity: 1;" transform="translate(0,276.02905569007265)"><line x2="-6" y2="0"></line><text x="-9" y="0" dy=".32em" style="text-anchor: end;">28</text></g><g class="tick major" style="opacity: 1;" transform="translate(0,230.02421307506057)"><line x2="-6" y2="0"></line><text x="-9" y="0" dy=".32em" style="text-anchor: end;">30</text></g><g class="tick major" style="opacity: 1;" transform="translate(0,184.01937046004844)"><line x2="-6" y2="0"></line><text x="-9" y="0" dy=".32em" style="text-anchor: end;">32</text></g><g class="tick major" style="opacity: 1;" transform="translate(0,138.0145278450363)"><line x2="-6" y2="0"></line><text x="-9" y="0" dy=".32em" style="text-anchor: end;">34</text></g><g class="tick major" style="opacity: 1;" transform="translate(0,92.00968523002422)"><line x2="-6" y2="0"></line><text x="-9" y="0" dy=".32em" style="text-anchor: end;">36</text></g><g class="tick major" style="opacity: 1;" transform="translate(0,46.00484261501208)"><line x2="-6" y2="0"></line><text x="-9" y="0" dy=".32em" style="text-anchor: end;">38</text></g><g class="tick major" style="opacity: 1;" transform="translate(0,0)"><line x2="-6" y2="0"></line><text x="-9" y="0" dy=".32em" style="text-anchor: end;">40</text></g><path class="domain" d="M-6,0H0V570H-6"></path><text class="priceLabels" transform="rotate(-90)" y="6" dy=".71em" style="text-anchor: end;">Price</text></g><line x1="40.56317117830454" x2="40.56317117830454" y1="0" y2="570" style="stroke: #cccccc;"></line><line x1="81.18275845004206" x2="81.18275845004206" y1="0" y2="570" style="stroke: #cccccc;"></line><line x1="123.15633196417083" x2="123.15633196417083" y1="0" y2="570" style="stroke: #cccccc;"></line><line x1="163.77591923590833" x2="163.77591923590833" y1="0" y2="570" style="stroke: #cccccc;"></line><line x1="205.74949275003712" x2="205.74949275003712" y1="0" y2="570" style="stroke: #cccccc;"></line><line x1="247.72306626416588" x2="247.72306626416588" y1="0" y2="570" style="stroke: #cccccc;"></line><line x1="288.3426535359034" x2="288.3426535359034" y1="0" y2="570" style="stroke: #cccccc;"></line><line x1="330.3162270500322" x2="330.3162270500322" y1="0" y2="570" style="stroke: #cccccc;"></line><line x1="370.99223041520264" x2="370.99223041520264" y1="0" y2="570" style="stroke: #cccccc;"></line><line x1="412.96580392933146" x2="412.96580392933146" y1="0" y2="570" style="stroke: #cccccc;"></line><line x1="454.93937744346016" x2="454.93937744346016" y1="0" y2="570" style="stroke: #cccccc;"></line><line x1="492.8509922304152" x2="492.8509922304152" y1="0" y2="570" style="stroke: #cccccc;"></line><line x1="534.768149651111" x2="534.768149651111" y1="0" y2="570" style="stroke: #cccccc;"></line><line x1="575.3877369228485" x2="575.3877369228485" y1="0" y2="570" style="stroke: #cccccc;"></line><line x1="617.3613104369772" x2="617.3613104369772" y1="0" y2="570" style="stroke: #cccccc;"></line><line x1="657.9808977087147" x2="657.9808977087147" y1="0" y2="570" style="stroke: #cccccc;"></line><line x1="699.9544712228435" x2="699.9544712228435" y1="0" y2="570" style="stroke: #cccccc;"></line><line x1="741.9280447369723" x2="741.9280447369723" y1="0" y2="570" style="stroke: #cccccc;"></line><line x1="782.5476320087099" x2="782.5476320087099" y1="0" y2="570" style="stroke: #cccccc;"></line><line x1="824.5212055228385" x2="824.5212055228385" y1="0" y2="570" style="stroke: #cccccc;"></line><line x1="865.1972088880091" x2="865.1972088880091" y1="0" y2="570" style="stroke: #cccccc;"></line><line x1="907.1707824021379" x2="907.1707824021379" y1="0" y2="570" style="stroke: #cccccc;"></line><line x1="949.1443559162666" x2="949.1443559162666" y1="0" y2="570" style="stroke: #cccccc;"></line><line x1="987.0559707032216" x2="987.0559707032216" y1="0" y2="570" style="stroke: #cccccc;"></line><line x1="1028.9731281239174" x2="1028.9731281239174" y1="0" y2="570" style="stroke: #cccccc;"></line><line x1="1069.592715395655" x2="1069.592715395655" y1="0" y2="570" style="stroke: #cccccc;"></line><line x1="1111.5662889097837" x2="1111.5662889097837" y1="0" y2="570" style="stroke: #cccccc;"></line><line x1="0" x2="1140" y1="552.0581113801453" y2="552.0581113801453" style="stroke: #cccccc;"></line><line x1="0" x2="1140" y1="506.05326876513317" y2="506.05326876513317" style="stroke: #cccccc;"></line><line x1="0" x2="1140" y1="460.0484261501211" y2="460.0484261501211" style="stroke: #cccccc;"></line><line x1="0" x2="1140" y1="414.04358353510895" y2="414.04358353510895" style="stroke: #cccccc;"></line><line x1="0" x2="1140" y1="368.03874092009687" y2="368.03874092009687" style="stroke: #cccccc;"></line><line x1="0" x2="1140" y1="322.0338983050848" y2="322.0338983050848" style="stroke: #cccccc;"></line><line x1="0" x2="1140" y1="276.02905569007265" y2="276.02905569007265" style="stroke: #cccccc;"></line><line x1="0" x2="1140" y1="230.02421307506057" y2="230.02421307506057" style="stroke: #cccccc;"></line><line x1="0" x2="1140" y1="184.01937046004844" y2="184.01937046004844" style="stroke: #cccccc;"></line><line x1="0" x2="1140" y1="138.0145278450363" y2="138.0145278450363" style="stroke: #cccccc;"></line><line x1="0" x2="1140" y1="92.00968523002422" y2="92.00968523002422" style="stroke: #cccccc;"></line><line x1="0" x2="1140" y1="46.00484261501208" y2="46.00484261501208" style="stroke: #cccccc;"></line><line x1="0" x2="1140" y1="0" y2="0" style="stroke: #cccccc;"></line></svg>